<?xml version="1.0" encoding="utf-8"?>
<!-- Generator: Adobe Illustrator 19.2.1, SVG Export Plug-In . SVG Version: 6.00 Build 0)  -->
<svg version="1.1" id="Layer_1" xmlns="http://www.w3.org/2000/svg" xmlns:xlink="http://www.w3.org/1999/xlink" x="0px" y="0px"
	 viewBox="0 0 270 216.5" style="enable-background:new 0 0 270 216.5;" xml:space="preserve">
<style type="text/css">
	.st0{fill:#F47721;}
	.st1{fill:#1E79A9;}
	.st2{fill:#1D79A9;}
</style>
<g id="Layer_1_1_">
	<path id="wf" class="st0" d="M156.5,51.5c-5.5,0-10.1,4.5-10.1,10l0,0v56.2c0,17.5-8.5,26.6-25.5,27.3c-8.2,0-14.5-2.6-18.9-7.8
		s-6.6-11.5-6.6-19.1V79.3l0,0c0-5.6-4.8-10.1-10.4-10.1s-10.4,4.5-10.4,10.1l0,0v38.8c0,7.6-2.2,13.9-6.6,19.1
		c-4.4,5.2-10.7,7.8-18.9,7.8c-17-0.7-25.5-9.8-25.5-27.3V61.4h-0.1c-0.1-5.5-4.6-10-10.1-10C7.8,51.5,3.2,56,3.2,61.6
		c0,0.3,0,0.6,0,0.9V123c0.7,11.2,4.2,20.1,10.3,26.8s14.5,11.6,25.1,14.5c0,0,6.3,0.8,10.7,0.8c5.5,0,10.1-0.8,10.1-0.8
		c5.8-1.5,10.9-3.6,15.3-6.3l10.3-6.5l10.2,6.5c4.4,2.7,9.5,4.8,15.3,6.3c0,0,4.6,0.8,10.1,0.8c4.4,0,10.7-0.8,10.7-0.8
		c10.6-3,19-7.8,25.1-14.5s9.6-15.6,10.3-26.8V61.5l0,0C166.6,55.9,162.1,51.5,156.5,51.5z M257.5,54.7
		C257.5,54.7,257.4,54.7,257.5,54.7L257.5,54.7h-43.4c0.7-6.1,2.5-11.3,5.7-15.7c4-5.6,8.7-9.7,14.2-12.2s10.7-3.8,15.6-3.8h7.9l0,0
		c5.4,0,9.7-4.3,9.7-9.7s-4.3-9.7-9.7-9.7c-0.2,0-0.3,0-0.5,0h-10.3c-11.3,0.7-21,3.6-29.1,8.7S203.3,24.2,199,32.5
		s-6.6,17.3-7,26.8v94.9l0,0c0,6,4.9,10.8,10.8,10.8c6,0,10.8-4.8,10.8-10.8l0,0V77.6c0,0,0-1.4,0-3.5h43.7l0,0l0,0
		c5.3,0,9.7-4.3,9.7-9.7C267.1,59.1,262.8,54.7,257.5,54.7z"/>
</g>
<g id="Layer_2">
	<path id="web_1_" class="st1" d="M31.8,183.2c-1,0-1.9,0.8-1.9,1.9l0,0v10.5c0,3.3-1.6,5-4.8,5.1c-1.5,0-2.7-0.5-3.5-1.4
		c-0.8-1-1.2-2.2-1.2-3.6v-7.2h-0.1c0-1-0.8-1.9-1.9-1.9c-1,0-1.9,0.8-1.9,1.9h-0.1v7.2c0,1.4-0.4,2.6-1.2,3.6s-2,1.4-3.5,1.4
		c-3.2-0.1-4.8-1.8-4.8-5.1V185l0,0c0-1-0.9-1.9-1.9-1.9s-1.9,0.8-1.9,1.9c0,0.1,0,0.1,0,0.2v11.3c0.1,2.1,0.8,3.8,1.9,5
		c1.1,1.3,2.7,2.2,4.7,2.7c0,0,1.2,0.1,2,0.1c1,0,1.9-0.1,1.9-0.1c1.1-0.3,2-0.7,2.9-1.2l1.9-1.2l1.9,1.2c0.8,0.5,1.8,0.9,2.9,1.2
		c0,0,0.9,0.1,1.9,0.1c0.8,0,2-0.1,2-0.1c2-0.6,3.5-1.5,4.7-2.7c1.1-1.3,1.8-2.9,1.9-5V185l0,0C33.7,184,32.9,183.2,31.8,183.2z
		 M57.7,194.5c0-1-0.8-1.9-1.9-1.9c-1,0-1.8,0.8-1.9,1.8c-0.4,2.1-1.2,3.6-2.2,4.7c-1,1.1-2.6,1.6-4.7,1.7c-1.4,0-2.6-0.3-3.6-1
		c-1-0.6-1.8-1.5-2.3-2.5s-0.8-2.1-0.9-3.3c0-1,0.1-2,0.4-2.9c0.3-0.9,0.7-1.7,1.3-2.4s1.3-1.2,2.1-1.6c0.8-0.4,1.7-0.6,2.7-0.6
		c1.3,0,2.3,0.2,3,0.5s1.3,0.8,1.8,1.4l-8.6,4.8c-0.6,0.3-1,0.9-1,1.6c0,1,0.8,1.7,1.7,1.7c0.4,0,0.7-0.1,1-0.3l12.2-6.8
		c-0.8-1.5-1.6-2.7-2.6-3.7s-2.1-1.7-3.3-2.2s-2.6-0.7-4.2-0.7c-1.6,0-3.3,0.4-4.9,1.2c-1.6,0.8-3,2.1-4.1,3.8s-1.6,3.8-1.6,6.2
		c0,1.8,0.5,3.5,1.5,5.1s2.3,2.9,3.9,3.8c1.6,0.9,3.3,1.4,5.1,1.4c2.3,0,4.2-0.6,5.9-1.6c1.6-1,2.9-2.3,3.7-3.8s1.3-2.9,1.3-4.2l0,0
		C57.7,194.7,57.7,194.6,57.7,194.5z M80.3,187.7c-0.9-1.6-2.2-2.8-3.8-3.6c-1.6-0.8-3.4-1.3-5.4-1.3c-1.4,0-2.7,0.3-3.9,0.8
		c-0.2,0-0.3,0.1-0.5,0.2c-0.4,0.3-0.7,0.8-0.8,1.3c0,0.1,0,0.1,0,0.2c0,0.1,0,0.1,0,0.2c0.1,0.9,0.9,1.6,1.8,1.6c0.1,0,0.3,0,0.4,0
		c0.2,0,0.3-0.1,0.5-0.2c0.8-0.3,1.7-0.4,2.7-0.4c0.8,0,1.5,0.1,2.3,0.4c0.7,0.3,1.5,0.7,2.1,1.3c0.7,0.6,1.2,1.3,1.6,2.2
		s0.6,1.9,0.6,3.1c0,0.8-0.1,1.7-0.4,2.5s-0.7,1.6-1.2,2.3c-0.6,0.7-1.3,1.3-2.1,1.7c-0.9,0.4-1.9,0.7-3,0.7c-2,0-3.6-0.7-4.9-2.2
		c-1.2-1.5-1.9-3.2-1.9-5.4v-17.4c0,0,0,0,0-0.1c0-1-0.8-1.9-1.9-1.9c-1,0-1.9,0.8-1.9,1.9l0,0v17.9c0,1.9,0.4,3.7,1.3,5.3
		c0.9,1.6,2.1,3,3.8,3.9c1.6,1,3.4,1.5,5.4,1.5c2.2,0,4-0.5,5.6-1.6c1.6-1,2.8-2.4,3.7-4.2c0.8-1.7,1.2-3.6,1.2-5.5
		C81.7,191.1,81.3,189.3,80.3,187.7z"/>
	<path id="factory_2_" class="st2" d="M92.8,178.1c1-0.5,2-0.7,2.9-0.7h1.5l0,0c1,0,1.8-0.8,1.8-1.8s-0.8-1.8-1.8-1.8h-0.1h-1.9
		c-2.1,0.1-3.9,0.7-5.4,1.6c-1.5,1-2.7,2.2-3.5,3.8s-1.2,3.2-1.3,5v17.7l0,0c0,1.1,0.9,2,2,2s2-0.9,2-2l0,0v-14.3c0,0,0-0.3,0-0.6
		h8.2l0,0l0,0c1,0,1.8-0.8,1.8-1.8s-0.8-1.8-1.8-1.8l0,0l0,0h-8.1c0.1-1.1,0.5-2.1,1.1-2.9C90.9,179.3,91.8,178.5,92.8,178.1z
		 M121.8,192.3c0-1.7-0.4-3.2-1.2-4.7c-0.8-1.4-2-2.6-3.6-3.5s-3.5-1.3-5.6-1.3c-1.8,0-3.3,0.3-4.7,0.8c-1.3,0.5-2.5,1.3-3.4,2.3
		s-1.6,2.1-2.1,3.4c-0.5,1.3-0.7,2.6-0.7,4.1c0,1.6,0.3,3.1,0.9,4.5s1.4,2.5,2.3,3.5c1,1,2.1,1.7,3.3,2.2c1.2,0.5,2.4,0.7,3.7,0.7
		c1.3,0,2.3-0.2,3-0.5c0.4-0.2,1-0.5,1.6-0.8c0.2-0.1,0.3-0.1,0.4-0.3c0.3-0.3,0.6-0.7,0.6-1.1c0-0.1,0-0.1,0-0.2c0-0.1,0-0.1,0-0.2
		c-0.1-0.8-0.8-1.5-1.7-1.5c-0.2,0-0.4,0-0.6,0.1c-0.1,0.1-0.3,0.1-0.4,0.2c-0.8,0.4-1.7,0.6-2.6,0.6c-1.1,0-2.2-0.3-3.3-0.9
		c-1-0.6-1.9-1.4-2.5-2.5s-1-2.4-1-3.9c0-1.7,0.4-3,1.2-4.1c0.7-1,1.6-1.8,2.6-2.2s2-0.6,3-0.6c2,0,3.7,0.5,4.9,1.5
		c1.2,1,1.8,2.4,1.9,4v9.9l0,0c0,1.1,0.9,1.9,1.9,1.9c1.1,0,1.9-0.9,1.9-1.9v-0.1v-9.4H121.8z M139.3,200.3h-3.1
		c-1.5,0-2.7-0.3-3.7-1s-1.8-1.5-2.3-2.5s-0.8-2-0.8-3c0-1.5,0.4-2.8,1.1-3.9c0.7-1,1.6-1.8,2.6-2.3s2-0.7,2.9-0.7h3.3
		c1,0,1.8-0.8,1.8-1.8s-0.8-1.8-1.8-1.8l0,0h-3.8c-2.1,0.1-3.9,0.7-5.4,1.6c-1.5,1-2.7,2.2-3.5,3.8s-1.2,3.2-1.3,5
		c0,1.5,0.4,3,1.2,4.6c0.8,1.5,1.9,2.8,3.5,3.9c1.6,1.1,3.4,1.6,5.6,1.7h3.8l0,0c1,0,1.8-0.8,1.8-1.8
		C141.1,201.1,140.3,200.3,139.3,200.3z M153.9,186.9L153.9,186.9L153.9,186.9c1,0,1.8-0.8,1.8-1.8s-0.8-1.8-1.8-1.8c0,0,0,0-0.1,0
		h-5.5v-7.7l0,0l0,0c0-1-0.8-1.9-1.9-1.9c-1,0-1.9,0.8-1.9,1.9c0,0.1,0,0.1,0,0.2v21.7c0,1.9,0.5,3.4,1.6,4.6c1,1.2,2.6,1.8,4.8,1.8
		h2.9l0,0c1,0,1.8-0.8,1.8-1.8s-0.8-1.8-1.8-1.8l0,0H151c-0.9,0-1.6-0.2-2-0.6c-0.5-0.4-0.7-0.9-0.7-1.5v-11.3L153.9,186.9
		L153.9,186.9z M175.5,185.6c-1-0.9-2.2-1.5-3.5-2s-2.6-0.7-3.9-0.7c-1.3,0-2.6,0.3-3.8,0.8c-1.3,0.5-2.4,1.2-3.4,2.2
		c-1,0.9-1.8,2.1-2.5,3.4c-0.6,1.3-0.9,2.7-0.9,4.2c0,0,0,0,0,0.1c0,0,0,0.1-0.1,0.1c0,1.9,0.5,3.7,1.5,5.4c0.9,1.7,2.3,3,4,4
		c1.8,1,3.8,1.5,6,1.5c2.1-0.1,3.9-0.7,5.5-1.8c1.5-1.1,2.7-2.5,3.4-4.2c0.8-1.7,1.2-3.3,1.2-4.9c0-1.7-0.3-3.2-0.9-4.5
		C177.3,187.6,176.5,186.5,175.5,185.6z M173.1,198.9c-1.2,1.2-2.8,1.8-4.8,1.8c-1.3,0-2.4-0.2-3.3-0.6c-0.9-0.4-1.6-1-2.1-1.8
		c-0.5-0.7-0.9-1.5-1.2-2.4c-0.2-0.9-0.4-1.7-0.4-2.6c0-1.1,0.3-2.1,0.8-3.2c0.5-1,1.2-1.9,2.3-2.5c1-0.7,2.3-1,3.7-1
		c1.9,0,3.5,0.6,4.8,1.8c1.2,1.2,1.9,2.8,2,4.8C174.9,195.7,174.3,197.7,173.1,198.9z M192.2,182.8L192.2,182.8h-1.1
		c-0.9,0-1.6,0.1-2.3,0.4c-0.7,0.3-1.3,0.6-1.8,1s-0.9,0.9-1.2,1.5v-0.4c0-0.1,0-0.2,0-0.2c0-0.1,0-0.2,0-0.2
		c-0.1-0.8-0.8-1.5-1.6-1.6c-0.1,0-0.1,0-0.2,0c-0.1,0-0.1,0-0.2,0c-0.8,0.1-1.5,0.7-1.6,1.5c0,0.1,0,0.2,0,0.3s0,0.2,0,0.3V202l0,0
		c0,1,0.8,1.9,1.9,1.9c1,0,1.9-0.8,1.9-1.9l0,0v-8.9c0.1-1.6,0.5-3.1,1.3-4.5s2.2-2.1,4.1-2.1h0.9l0,0c1,0,1.8-0.8,1.8-1.8
		C194.1,183.6,193.2,182.8,192.2,182.8z M213.7,185.1c0-1.1-0.9-1.9-1.9-1.9c-1.1,0-1.9,0.9-1.9,1.9l0,0v10.5c0,1.4-0.4,2.6-1.2,3.6
		s-2,1.4-3.5,1.4c-3.2-0.1-4.8-1.8-4.8-5.1v-10.4l0,0l0,0c0-1-0.8-1.9-1.9-1.9c-1,0-1.9,0.8-1.9,1.9l0,0v11.4c0.1,2.1,0.8,3.8,1.9,5
		c1.1,1.3,2.7,2.2,4.7,2.7c0,0,1.2,0.1,2,0.1c1,0,1.9-0.1,1.9-0.1c1.1-0.3,2-0.7,2.9-1.2v3.3c-0.2,2.2-1.5,3.3-3.9,3.3H205l0,0l0,0
		c-1,0-1.8,0.8-1.8,1.8s0.8,1.8,1.8,1.8l0,0l0,0h1.9c1.6-0.1,3.2-0.7,4.6-1.8c1.4-1.2,2.1-3.1,2.1-5.7v-9.4c0-0.3,0-0.5,0-0.8
		L213.7,185.1L213.7,185.1z"/>
</g>
</svg>
