<svg xmlns="http://www.w3.org/2000/svg" viewBox="0 0 270 216.5"><style type="text/css">  
	.st0{fill:none;}
	.st1{fill:#F7BC60;}
	.st2{fill:#FFFFFF;}
	.st3{fill:#F47721;}
	.st4{fill:#1E79A9;}
	.st5{fill:#1D79A9;}
</style><pattern x="-164" y="504.9" width="69" height="69" patternUnits="userSpaceOnUse" viewBox="2.1 -70.9 69 69"><polygon class="st0" points="71.1 -1.9 2.1 -1.9 2.1 -70.9 71.1 -70.9 "/><polygon class="st1" points="71.1 -1.9 2.1 -1.9 2.1 -70.9 71.1 -70.9 "/><path class="st2" d="M61.8-71.7c0 0.1 0 0.1 0 0.2 -0.1 0.1-0.1 0.1-0.2 0.1 -0.1 0.1-0.1 0.3-0.1 0.4 -0.2 0.1 0 0.2 0 0.3 0 0 0 0.1 0 0.2 0 0.1 0 0.3 0.1 0.4 0.1 0.2 0.3 0.4 0.4 0.5 0.2 0.1 0.4 0.6 0.6 0.6 0.2 0 0.4-0.1 0.5-0.1 0.2 0 0.4 0 0.6-0.1 0.2-0.1 0.1-0.3 0.3-0.5 0.1-0.1 0.3 0 0.4-0.1 0.2-0.1 0.3-0.3 0.4-0.5 0-0.1 0-0.1 0-0.2 0-0.1 0.1-0.2 0.1-0.3 0-0.1-0.1-0.1-0.1-0.2 0-0.1 0-0.2 0-0.3 0-0.2 0-0.4-0.1-0.5 -0.4-0.7-1.2-0.9-2-0.8 -0.2 0-0.3 0.1-0.4 0.2 -0.2 0.1-0.1 0.2-0.3 0.2 -0.1 0-0.2 0.1-0.2 0.2C61.8-71.7 61.8-71.7 61.8-71.7 61.8-71.6 61.8-71.6 61.8-71.7"/><path class="st2" d="M54.1-71.7c0 0.1 0 0.1 0 0.2 -0.1 0.1-0.1 0.1-0.2 0.1 -0.1 0.1-0.1 0.3-0.1 0.4 -0.2 0.1 0 0.2 0 0.3 0 0 0 0.1 0 0.2 0 0.1 0 0.3 0.1 0.4 0.1 0.2 0.3 0.4 0.4 0.5 0.2 0.1 0.4 0.6 0.6 0.6 0.2 0 0.4-0.1 0.5-0.1 0.2 0 0.4 0 0.6-0.1 0.2-0.1 0.1-0.3 0.3-0.5 0.1-0.1 0.3 0 0.4-0.1 0.2-0.1 0.3-0.3 0.4-0.5 0-0.1 0-0.1 0-0.2 0-0.1 0.1-0.2 0.1-0.3 0-0.1-0.1-0.1-0.1-0.2 0-0.1 0-0.2 0-0.3 0-0.2 0-0.4-0.1-0.5 -0.4-0.7-1.2-0.9-2-0.8 -0.2 0-0.3 0.1-0.4 0.2 -0.2 0.1-0.1 0.2-0.3 0.2 -0.1 0-0.2 0.1-0.2 0.2C54.1-71.7 54.1-71.7 54.1-71.7 54.1-71.6 54.1-71.6 54.1-71.7"/><path class="st2" d="M46.4-71.7c0 0.1 0 0.1 0 0.2 -0.1 0.1-0.1 0.1-0.2 0.1 -0.1 0.1-0.1 0.3-0.1 0.4 -0.2 0.1 0 0.2 0 0.3 0 0 0 0.1 0 0.2 0 0.1 0 0.3 0.1 0.4 0.1 0.2 0.3 0.4 0.4 0.5 0.2 0.1 0.4 0.6 0.6 0.6 0.2 0 0.4-0.1 0.5-0.1 0.2 0 0.4 0 0.6-0.1 0.2-0.1 0.1-0.3 0.3-0.5 0.1-0.1 0.3 0 0.4-0.1 0.2-0.1 0.3-0.3 0.4-0.5 0-0.1 0-0.1 0-0.2 0-0.1 0.1-0.2 0.1-0.3 0-0.1-0.1-0.1-0.1-0.2 0-0.1 0-0.2 0-0.3 0-0.2 0-0.4-0.1-0.5 -0.4-0.7-1.2-0.9-2-0.8 -0.2 0-0.3 0.1-0.4 0.2 -0.2 0.1-0.1 0.2-0.3 0.2 -0.1 0-0.2 0.1-0.2 0.2C46.4-71.7 46.4-71.7 46.4-71.7 46.4-71.6 46.4-71.6 46.4-71.7"/><path class="st2" d="M38.8-71.7c0 0.1 0 0.1 0 0.2 -0.1 0.1-0.1 0.1-0.2 0.1 -0.1 0.1-0.1 0.3-0.1 0.4 -0.2 0.1 0 0.2 0 0.3 0 0 0 0.1 0 0.2 0 0.1 0 0.3 0.1 0.4 0.1 0.2 0.3 0.4 0.4 0.5 0.2 0.1 0.4 0.6 0.6 0.6 0.2 0 0.4-0.1 0.5-0.1 0.2 0 0.4 0 0.6-0.1 0.2-0.1 0.1-0.3 0.3-0.5 0.1-0.1 0.3 0 0.4-0.1 0.2-0.1 0.3-0.3 0.4-0.5 0-0.1 0-0.1 0-0.2 0-0.1 0.1-0.2 0.1-0.3 0-0.1-0.1-0.1-0.1-0.2 0-0.1 0-0.2 0-0.3 0-0.2 0-0.4-0.1-0.5 -0.4-0.7-1.2-0.9-2-0.8 -0.2 0-0.3 0.1-0.4 0.2 -0.2 0.1-0.1 0.2-0.3 0.2 -0.1 0-0.2 0.1-0.2 0.2C38.8-71.7 38.8-71.7 38.8-71.7 38.8-71.6 38.8-71.6 38.8-71.7"/><path class="st2" d="M31.1-71.7c0 0.1 0 0.1 0 0.2 -0.1 0.1-0.1 0.1-0.2 0.1 -0.1 0.1-0.1 0.3-0.1 0.4 -0.2 0.1 0 0.2 0 0.3 0 0 0 0.1 0 0.2 0 0.1 0 0.3 0.1 0.4 0.1 0.2 0.3 0.4 0.4 0.5 0.2 0.1 0.4 0.6 0.6 0.6 0.2 0 0.4-0.1 0.5-0.1 0.2 0 0.4 0 0.6-0.1 0.2-0.1 0.1-0.3 0.3-0.5 0.1-0.1 0.3 0 0.4-0.1 0.2-0.1 0.3-0.3 0.4-0.5 0-0.1 0-0.1 0-0.2 0-0.1 0.1-0.2 0.1-0.3 0-0.1-0.1-0.1-0.1-0.2 0-0.1 0-0.2 0-0.3 0-0.2 0-0.4-0.1-0.5 -0.4-0.7-1.2-0.9-2-0.8 -0.2 0-0.3 0.1-0.4 0.2 -0.2 0.1-0.1 0.2-0.3 0.2 -0.1 0-0.2 0.1-0.2 0.2C31.1-71.7 31.1-71.7 31.1-71.7 31.1-71.6 31.1-71.6 31.1-71.7"/><path class="st2" d="M23.4-71.7c0 0.1 0 0.1 0 0.2 -0.1 0.1-0.1 0.1-0.2 0.1 -0.1 0.1-0.1 0.3-0.1 0.4 -0.2 0.1 0 0.2 0 0.3 0 0 0 0.1 0 0.2 0 0.1 0 0.3 0.1 0.4 0.1 0.2 0.3 0.4 0.4 0.5 0.2 0.1 0.4 0.6 0.6 0.6 0.2 0 0.4-0.1 0.5-0.1 0.2 0 0.4 0 0.6-0.1 0.2-0.1 0.1-0.3 0.3-0.5 0.1-0.1 0.3 0 0.4-0.1 0.2-0.1 0.3-0.3 0.4-0.5 0-0.1 0-0.1 0-0.2 0-0.1 0.1-0.2 0.1-0.3 0-0.1-0.1-0.1-0.1-0.2 0-0.1 0-0.2 0-0.3 0-0.2 0-0.4-0.1-0.5 -0.4-0.7-1.2-0.9-2-0.8 -0.2 0-0.3 0.1-0.4 0.2 -0.2 0.1-0.1 0.2-0.3 0.2 -0.1 0-0.2 0.1-0.2 0.2C23.4-71.7 23.4-71.7 23.4-71.7 23.4-71.6 23.4-71.6 23.4-71.7"/><path class="st2" d="M15.8-71.7c0 0.1 0 0.1 0 0.2 -0.1 0.1-0.1 0.1-0.2 0.1 -0.1 0.1-0.1 0.3-0.1 0.4 -0.2 0.1 0 0.2 0 0.3 0 0 0 0.1 0 0.2 0 0.1 0 0.3 0.1 0.4 0.1 0.2 0.3 0.4 0.4 0.5 0.2 0.1 0.4 0.6 0.6 0.6 0.2 0 0.4-0.1 0.5-0.1 0.2 0 0.4 0 0.6-0.1 0.2-0.1 0.1-0.3 0.3-0.5 0.1-0.1 0.3 0 0.4-0.1 0.2-0.1 0.3-0.3 0.4-0.5 0-0.1 0-0.1 0-0.2 0-0.1 0.1-0.2 0.1-0.3 0-0.1-0.1-0.1-0.1-0.2 0-0.1 0-0.2 0-0.3 0-0.2 0-0.4-0.1-0.5 -0.4-0.7-1.2-0.9-2-0.8 -0.2 0-0.3 0.1-0.4 0.2 -0.2 0.1-0.1 0.2-0.3 0.2 -0.1 0-0.2 0.1-0.2 0.2C15.8-71.7 15.8-71.7 15.8-71.7 15.8-71.6 15.8-71.6 15.8-71.7"/><path class="st2" d="M8.1-71.7c0 0.1 0 0.1 0 0.2C8-71.4 8-71.4 7.9-71.3c-0.1 0.1-0.1 0.3-0.1 0.4 -0.2 0.1 0 0.2 0 0.3 0 0 0 0.1 0 0.2 0 0.1 0 0.3 0.1 0.4 0.1 0.2 0.3 0.4 0.4 0.5 0.2 0.1 0.4 0.6 0.6 0.6 0.2 0 0.4-0.1 0.5-0.1 0.2 0 0.4 0 0.6-0.1 0.2-0.1 0.1-0.3 0.3-0.5 0.1-0.1 0.3 0 0.4-0.1 0.2-0.1 0.3-0.3 0.4-0.5 0-0.1 0-0.1 0-0.2 0-0.1 0.1-0.2 0.1-0.3 0-0.1-0.1-0.1-0.1-0.2 0-0.1 0-0.2 0-0.3 0-0.2 0-0.4-0.1-0.5 -0.4-0.7-1.2-0.9-2-0.8 -0.2 0-0.3 0.1-0.4 0.2 -0.2 0.1-0.1 0.2-0.3 0.2 -0.1 0-0.2 0.1-0.2 0.2C8.1-71.7 8.1-71.7 8.1-71.7 8.1-71.6 8.1-71.6 8.1-71.7"/><path class="st2" d="M0.4-71.7c0 0.1 0 0.1 0 0.2 -0.1 0.1-0.1 0.1-0.2 0.1 -0.1 0.1-0.1 0.3-0.1 0.4 -0.2 0.1 0 0.2 0 0.3 0 0 0 0.1 0 0.2 0 0.1 0 0.3 0.1 0.4 0.1 0.2 0.3 0.4 0.4 0.5C0.8-69.4 1-69 1.2-68.9c0.2 0 0.4-0.1 0.5-0.1 0.2 0 0.4 0 0.6-0.1 0.2-0.1 0.1-0.3 0.3-0.5 0.1-0.1 0.3 0 0.4-0.1 0.2-0.1 0.3-0.3 0.4-0.5 0-0.1 0-0.1 0-0.2 0-0.1 0.1-0.2 0.1-0.3 0-0.1-0.1-0.1-0.1-0.2 0-0.1 0-0.2 0-0.3 0-0.2 0-0.4-0.1-0.5 -0.4-0.7-1.2-0.9-2-0.8 -0.2 0-0.3 0.1-0.4 0.2 -0.2 0.1-0.1 0.2-0.3 0.2 -0.1 0-0.2 0.1-0.2 0.2C0.4-71.7 0.4-71.7 0.4-71.7 0.4-71.6 0.4-71.6 0.4-71.7"/><path class="st2" d="M69.4-71.7c0 0.1 0 0.1 0 0.2 -0.1 0.1-0.1 0.1-0.2 0.1 -0.1 0.1-0.1 0.3-0.1 0.4 -0.2 0.1 0 0.2 0 0.3 0 0 0 0.1 0 0.2 0 0.1 0 0.3 0.1 0.4 0.1 0.2 0.3 0.4 0.4 0.5 0.2 0.1 0.4 0.6 0.6 0.6 0.2 0 0.4-0.1 0.5-0.1 0.2 0 0.4 0 0.6-0.1 0.2-0.1 0.1-0.3 0.3-0.5 0.1-0.1 0.3 0 0.4-0.1 0.2-0.1 0.3-0.3 0.4-0.5 0-0.1 0-0.1 0-0.2 0-0.1 0.1-0.2 0.1-0.3 0-0.1-0.1-0.1-0.1-0.2 0-0.1 0-0.2 0-0.3 0-0.2 0-0.4-0.1-0.5 -0.4-0.7-1.2-0.9-2-0.8 -0.2 0-0.3 0.1-0.4 0.2 -0.2 0.1-0.1 0.2-0.3 0.2 -0.1 0-0.2 0.1-0.2 0.2C69.4-71.7 69.4-71.7 69.4-71.7 69.4-71.6 69.4-71.6 69.4-71.7"/><path class="st2" d="M0.5-71.7c0 0.1 0 0.1 0 0.2 -0.1 0.1-0.1 0.1-0.2 0.1 -0.1 0.1-0.1 0.3-0.1 0.4 -0.2 0.1 0 0.2 0 0.3 0 0 0 0.1 0 0.2 0 0.1 0 0.3 0.1 0.4 0.1 0.2 0.3 0.4 0.4 0.5C0.9-69.4 1-69 1.3-68.9c0.2 0 0.4-0.1 0.5-0.1 0.2 0 0.4 0 0.6-0.1 0.2-0.1 0.1-0.3 0.3-0.5 0.1-0.1 0.3 0 0.4-0.1 0.2-0.1 0.3-0.3 0.4-0.5 0-0.1 0-0.1 0-0.2 0-0.1 0.1-0.2 0.1-0.3 0-0.1-0.1-0.1-0.1-0.2 0-0.1 0-0.2 0-0.3 0-0.2 0-0.4-0.1-0.5 -0.4-0.7-1.2-0.9-2-0.8 -0.2 0-0.3 0.1-0.4 0.2 -0.2 0.1-0.1 0.2-0.3 0.2 -0.1 0-0.2 0.1-0.2 0.2C0.5-71.7 0.5-71.7 0.5-71.7 0.5-71.6 0.5-71.6 0.5-71.7"/><path class="st2" d="M69.4-64c0 0.1 0 0.1 0 0.2 -0.1 0.1-0.1 0.1-0.2 0.1 -0.1 0.1-0.1 0.3-0.1 0.4 -0.2 0.1 0 0.2 0 0.3 0 0 0 0.1 0 0.2 0 0.1 0 0.3 0.1 0.4 0.1 0.2 0.3 0.4 0.4 0.5 0.2 0.1 0.4 0.6 0.6 0.6 0.2 0 0.4-0.1 0.5-0.1 0.2 0 0.4 0 0.6-0.1 0.2-0.1 0.1-0.3 0.3-0.5 0.1-0.1 0.3 0 0.4-0.1 0.2-0.1 0.3-0.3 0.4-0.5 0-0.1 0-0.1 0-0.2 0-0.1 0.1-0.2 0.1-0.3 0-0.1-0.1-0.1-0.1-0.2 0-0.1 0-0.2 0-0.3 0-0.2 0-0.4-0.1-0.5 -0.4-0.7-1.2-0.9-2-0.8 -0.2 0-0.3 0.1-0.4 0.2 -0.2 0.1-0.1 0.2-0.3 0.2 -0.1 0-0.2 0.1-0.2 0.2C69.4-64 69.4-64.1 69.4-64 69.4-64 69.4-64 69.4-64"/><path class="st2" d="M61.8-64c0 0.1 0 0.1 0 0.2 -0.1 0.1-0.1 0.1-0.2 0.1 -0.1 0.1-0.1 0.3-0.1 0.4 -0.2 0.1 0 0.2 0 0.3 0 0 0 0.1 0 0.2 0 0.1 0 0.3 0.1 0.4 0.1 0.2 0.3 0.4 0.4 0.5 0.2 0.1 0.4 0.6 0.6 0.6 0.2 0 0.4-0.1 0.5-0.1 0.2 0 0.4 0 0.6-0.1 0.2-0.1 0.1-0.3 0.3-0.5 0.1-0.1 0.3 0 0.4-0.1 0.2-0.1 0.3-0.3 0.4-0.5 0-0.1 0-0.1 0-0.2 0-0.1 0.1-0.2 0.1-0.3 0-0.1-0.1-0.1-0.1-0.2 0-0.1 0-0.2 0-0.3 0-0.2 0-0.4-0.1-0.5 -0.4-0.7-1.2-0.9-2-0.8 -0.2 0-0.3 0.1-0.4 0.2 -0.2 0.1-0.1 0.2-0.3 0.2 -0.1 0-0.2 0.1-0.2 0.2C61.8-64 61.8-64.1 61.8-64 61.8-64 61.8-64 61.8-64"/><path class="st2" d="M54.1-64c0 0.1 0 0.1 0 0.2 -0.1 0.1-0.1 0.1-0.2 0.1 -0.1 0.1-0.1 0.3-0.1 0.4 -0.2 0.1 0 0.2 0 0.3 0 0 0 0.1 0 0.2 0 0.1 0 0.3 0.1 0.4 0.1 0.2 0.3 0.4 0.4 0.5 0.2 0.1 0.4 0.6 0.6 0.6 0.2 0 0.4-0.1 0.5-0.1 0.2 0 0.4 0 0.6-0.1 0.2-0.1 0.1-0.3 0.3-0.5 0.1-0.1 0.3 0 0.4-0.1 0.2-0.1 0.3-0.3 0.4-0.5 0-0.1 0-0.1 0-0.2 0-0.1 0.1-0.2 0.1-0.3 0-0.1-0.1-0.1-0.1-0.2 0-0.1 0-0.2 0-0.3 0-0.2 0-0.4-0.1-0.5 -0.4-0.7-1.2-0.9-2-0.8 -0.2 0-0.3 0.1-0.4 0.2 -0.2 0.1-0.1 0.2-0.3 0.2 -0.1 0-0.2 0.1-0.2 0.2C54.1-64 54.1-64.1 54.1-64 54.1-64 54.1-64 54.1-64"/><path class="st2" d="M46.5-64c0 0.1 0 0.1 0 0.2 -0.1 0.1-0.1 0.1-0.2 0.1 -0.1 0.1-0.1 0.3-0.1 0.4 -0.2 0.1 0 0.2 0 0.3 0 0 0 0.1 0 0.2 0 0.1 0 0.3 0.1 0.4 0.1 0.2 0.3 0.4 0.4 0.5 0.2 0.1 0.4 0.6 0.6 0.6 0.2 0 0.4-0.1 0.5-0.1 0.2 0 0.4 0 0.6-0.1 0.2-0.1 0.1-0.3 0.3-0.5 0.1-0.1 0.3 0 0.4-0.1 0.2-0.1 0.3-0.3 0.4-0.5 0-0.1 0-0.1 0-0.2 0-0.1 0.1-0.2 0.1-0.3 0-0.1-0.1-0.1-0.1-0.2 0-0.1 0-0.2 0-0.3 0-0.2 0-0.4-0.1-0.5 -0.4-0.7-1.2-0.9-2-0.8 -0.2 0-0.3 0.1-0.4 0.2 -0.2 0.1-0.1 0.2-0.3 0.2 -0.1 0-0.2 0.1-0.2 0.2C46.5-64 46.5-64.1 46.5-64 46.5-64 46.5-64 46.5-64"/><path class="st2" d="M38.8-64c0 0.1 0 0.1 0 0.2 -0.1 0.1-0.1 0.1-0.2 0.1 -0.1 0.1-0.1 0.3-0.1 0.4 -0.2 0.1 0 0.2 0 0.3 0 0 0 0.1 0 0.2 0 0.1 0 0.3 0.1 0.4 0.1 0.2 0.3 0.4 0.4 0.5 0.2 0.1 0.4 0.6 0.6 0.6 0.2 0 0.4-0.1 0.5-0.1 0.2 0 0.4 0 0.6-0.1 0.2-0.1 0.1-0.3 0.3-0.5 0.1-0.1 0.3 0 0.4-0.1 0.2-0.1 0.3-0.3 0.4-0.5 0-0.1 0-0.1 0-0.2 0-0.1 0.1-0.2 0.1-0.3 0-0.1-0.1-0.1-0.1-0.2 0-0.1 0-0.2 0-0.3 0-0.2 0-0.4-0.1-0.5 -0.4-0.7-1.2-0.9-2-0.8 -0.2 0-0.3 0.1-0.4 0.2 -0.2 0.1-0.1 0.2-0.3 0.2 -0.1 0-0.2 0.1-0.2 0.2C38.8-64 38.8-64.1 38.8-64 38.8-64 38.8-64 38.8-64"/><path class="st2" d="M31.1-64c0 0.1 0 0.1 0 0.2 -0.1 0.1-0.1 0.1-0.2 0.1 -0.1 0.1-0.1 0.3-0.1 0.4 -0.2 0.1 0 0.2 0 0.3 0 0 0 0.1 0 0.2 0 0.1 0 0.3 0.1 0.4 0.1 0.2 0.3 0.4 0.4 0.5 0.2 0.1 0.4 0.6 0.6 0.6 0.2 0 0.4-0.1 0.5-0.1 0.2 0 0.4 0 0.6-0.1 0.2-0.1 0.1-0.3 0.3-0.5 0.1-0.1 0.3 0 0.4-0.1 0.2-0.1 0.3-0.3 0.4-0.5 0-0.1 0-0.1 0-0.2 0-0.1 0.1-0.2 0.1-0.3 0-0.1-0.1-0.1-0.1-0.2 0-0.1 0-0.2 0-0.3 0-0.2 0-0.4-0.1-0.5 -0.4-0.7-1.2-0.9-2-0.8 -0.2 0-0.3 0.1-0.4 0.2 -0.2 0.1-0.1 0.2-0.3 0.2 -0.1 0-0.2 0.1-0.2 0.2C31.1-64 31.1-64.1 31.1-64 31.1-64 31.1-64 31.1-64"/><path class="st2" d="M23.5-64c0 0.1 0 0.1 0 0.2 -0.1 0.1-0.1 0.1-0.2 0.1 -0.1 0.1-0.1 0.3-0.1 0.4 -0.2 0.1 0 0.2 0 0.3 0 0 0 0.1 0 0.2 0 0.1 0 0.3 0.1 0.4 0.1 0.2 0.3 0.4 0.4 0.5 0.2 0.1 0.4 0.6 0.6 0.6 0.2 0 0.4-0.1 0.5-0.1 0.2 0 0.4 0 0.6-0.1 0.2-0.1 0.1-0.3 0.3-0.5 0.1-0.1 0.3 0 0.4-0.1 0.2-0.1 0.3-0.3 0.4-0.5 0-0.1 0-0.1 0-0.2 0-0.1 0.1-0.2 0.1-0.3 0-0.1-0.1-0.1-0.1-0.2 0-0.1 0-0.2 0-0.3 0-0.2 0-0.4-0.1-0.5 -0.4-0.7-1.2-0.9-2-0.8 -0.2 0-0.3 0.1-0.4 0.2 -0.2 0.1-0.1 0.2-0.3 0.2 -0.1 0-0.2 0.1-0.2 0.2C23.5-64 23.5-64.1 23.5-64 23.5-64 23.5-64 23.5-64"/><path class="st2" d="M15.8-64c0 0.1 0 0.1 0 0.2 -0.1 0.1-0.1 0.1-0.2 0.1 -0.1 0.1-0.1 0.3-0.1 0.4 -0.2 0.1 0 0.2 0 0.3 0 0 0 0.1 0 0.2 0 0.1 0 0.3 0.1 0.4 0.1 0.2 0.3 0.4 0.4 0.5 0.2 0.1 0.4 0.6 0.6 0.6 0.2 0 0.4-0.1 0.5-0.1 0.2 0 0.4 0 0.6-0.1 0.2-0.1 0.1-0.3 0.3-0.5 0.1-0.1 0.3 0 0.4-0.1 0.2-0.1 0.3-0.3 0.4-0.5 0-0.1 0-0.1 0-0.2 0-0.1 0.1-0.2 0.1-0.3 0-0.1-0.1-0.1-0.1-0.2 0-0.1 0-0.2 0-0.3 0-0.2 0-0.4-0.1-0.5 -0.4-0.7-1.2-0.9-2-0.8 -0.2 0-0.3 0.1-0.4 0.2 -0.2 0.1-0.1 0.2-0.3 0.2 -0.1 0-0.2 0.1-0.2 0.2C15.8-64 15.8-64.1 15.8-64 15.8-64 15.8-64 15.8-64"/><path class="st2" d="M8.2-64c0 0.1 0 0.1 0 0.2C8.1-63.7 8-63.7 8-63.7c-0.1 0.1-0.1 0.3-0.1 0.4 -0.2 0.1 0 0.2 0 0.3 0 0 0 0.1 0 0.2 0 0.1 0 0.3 0.1 0.4C8-62.2 8.2-62 8.3-61.9c0.2 0.1 0.4 0.6 0.6 0.6 0.2 0 0.4-0.1 0.5-0.1 0.2 0 0.4 0 0.6-0.1 0.2-0.1 0.1-0.3 0.3-0.5 0.1-0.1 0.3 0 0.4-0.1 0.2-0.1 0.3-0.3 0.4-0.5 0-0.1 0-0.1 0-0.2 0-0.1 0.1-0.2 0.1-0.3 0-0.1-0.1-0.1-0.1-0.2 0-0.1 0-0.2 0-0.3 0-0.2 0-0.4-0.1-0.5 -0.4-0.7-1.2-0.9-2-0.8 -0.2 0-0.3 0.1-0.4 0.2 -0.2 0.1-0.1 0.2-0.3 0.2 -0.1 0-0.2 0.1-0.2 0.2C8.2-64 8.2-64.1 8.2-64 8.1-64 8.1-64 8.2-64"/><path class="st2" d="M0.5-64c0 0.1 0 0.1 0 0.2 -0.1 0.1-0.1 0.1-0.2 0.1 -0.1 0.1-0.1 0.3-0.1 0.4 -0.2 0.1 0 0.2 0 0.3 0 0 0 0.1 0 0.2 0 0.1 0 0.3 0.1 0.4 0.1 0.2 0.3 0.4 0.4 0.5 0.2 0.1 0.4 0.6 0.6 0.6 0.2 0 0.4-0.1 0.5-0.1 0.2 0 0.4 0 0.6-0.1 0.2-0.1 0.1-0.3 0.3-0.5C2.8-62 3-61.9 3.1-62c0.2-0.1 0.3-0.3 0.4-0.5 0-0.1 0-0.1 0-0.2 0-0.1 0.1-0.2 0.1-0.3 0-0.1-0.1-0.1-0.1-0.2 0-0.1 0-0.2 0-0.3 0-0.2 0-0.4-0.1-0.5 -0.4-0.7-1.2-0.9-2-0.8 -0.2 0-0.3 0.1-0.4 0.2 -0.2 0.1-0.1 0.2-0.3 0.2 -0.1 0-0.2 0.1-0.2 0.2C0.5-64 0.5-64.1 0.5-64 0.5-64 0.5-64 0.5-64"/><path class="st2" d="M69.4-56.3c0 0.1 0 0.1 0 0.2 -0.1 0.1-0.1 0.1-0.2 0.1 -0.1 0.1-0.1 0.3-0.1 0.4 -0.2 0.1 0 0.2 0 0.3 0 0 0 0.1 0 0.2 0 0.1 0 0.3 0.1 0.4 0.1 0.2 0.3 0.4 0.4 0.5 0.2 0.1 0.4 0.6 0.6 0.6 0.2 0 0.4-0.1 0.5-0.1 0.2 0 0.4 0 0.6-0.1 0.2-0.1 0.1-0.3 0.3-0.5 0.1-0.1 0.3 0 0.4-0.1 0.2-0.1 0.3-0.3 0.4-0.5 0-0.1 0-0.1 0-0.2 0-0.1 0.1-0.2 0.1-0.3 0-0.1-0.1-0.1-0.1-0.2 0-0.1 0-0.2 0-0.3 0-0.2 0-0.4-0.1-0.5 -0.4-0.7-1.2-0.9-2-0.8 -0.2 0-0.3 0.1-0.4 0.2 -0.2 0.1-0.1 0.2-0.3 0.2 -0.1 0-0.2 0.1-0.2 0.2C69.4-56.4 69.4-56.4 69.4-56.3 69.4-56.3 69.4-56.3 69.4-56.3"/><path class="st2" d="M61.8-56.3c0 0.1 0 0.1 0 0.2 -0.1 0.1-0.1 0.1-0.2 0.1 -0.1 0.1-0.1 0.3-0.1 0.4 -0.2 0.1 0 0.2 0 0.3 0 0 0 0.1 0 0.2 0 0.1 0 0.3 0.1 0.4 0.1 0.2 0.3 0.4 0.4 0.5 0.2 0.1 0.4 0.6 0.6 0.6 0.2 0 0.4-0.1 0.5-0.1 0.2 0 0.4 0 0.6-0.1 0.2-0.1 0.1-0.3 0.3-0.5 0.1-0.1 0.3 0 0.4-0.1 0.2-0.1 0.3-0.3 0.4-0.5 0-0.1 0-0.1 0-0.2 0-0.1 0.1-0.2 0.1-0.3 0-0.1-0.1-0.1-0.1-0.2 0-0.1 0-0.2 0-0.3 0-0.2 0-0.4-0.1-0.5 -0.4-0.7-1.2-0.9-2-0.8 -0.2 0-0.3 0.1-0.4 0.2 -0.2 0.1-0.1 0.2-0.3 0.2 -0.1 0-0.2 0.1-0.2 0.2C61.8-56.4 61.8-56.4 61.8-56.3 61.8-56.3 61.8-56.3 61.8-56.3"/><path class="st2" d="M54.1-56.3c0 0.1 0 0.1 0 0.2C54-56.1 54-56.1 53.9-56c-0.1 0.1-0.1 0.3-0.1 0.4 -0.2 0.1 0 0.2 0 0.3 0 0 0 0.1 0 0.2 0 0.1 0 0.3 0.1 0.4 0.1 0.2 0.3 0.4 0.4 0.5 0.2 0.1 0.4 0.6 0.6 0.6 0.2 0 0.4-0.1 0.5-0.1 0.2 0 0.4 0 0.6-0.1 0.2-0.1 0.1-0.3 0.3-0.5 0.1-0.1 0.3 0 0.4-0.1 0.2-0.1 0.3-0.3 0.4-0.5 0-0.1 0-0.1 0-0.2 0-0.1 0.1-0.2 0.1-0.3 0-0.1-0.1-0.1-0.1-0.2 0-0.1 0-0.2 0-0.3 0-0.2 0-0.4-0.1-0.5 -0.4-0.7-1.2-0.9-2-0.8 -0.2 0-0.3 0.1-0.4 0.2 -0.2 0.1-0.1 0.2-0.3 0.2 -0.1 0-0.2 0.1-0.2 0.2C54.1-56.4 54.1-56.4 54.1-56.3 54.1-56.3 54.1-56.3 54.1-56.3"/><path class="st2" d="M46.5-56.3c0 0.1 0 0.1 0 0.2 -0.1 0.1-0.1 0.1-0.2 0.1 -0.1 0.1-0.1 0.3-0.1 0.4 -0.2 0.1 0 0.2 0 0.3 0 0 0 0.1 0 0.2 0 0.1 0 0.3 0.1 0.4 0.1 0.2 0.3 0.4 0.4 0.5 0.2 0.1 0.4 0.6 0.6 0.6 0.2 0 0.4-0.1 0.5-0.1 0.2 0 0.4 0 0.6-0.1 0.2-0.1 0.1-0.3 0.3-0.5 0.1-0.1 0.3 0 0.4-0.1 0.2-0.1 0.3-0.3 0.4-0.5 0-0.1 0-0.1 0-0.2 0-0.1 0.1-0.2 0.1-0.3 0-0.1-0.1-0.1-0.1-0.2 0-0.1 0-0.2 0-0.3 0-0.2 0-0.4-0.1-0.5 -0.4-0.7-1.2-0.9-2-0.8 -0.2 0-0.3 0.1-0.4 0.2 -0.2 0.1-0.1 0.2-0.3 0.2 -0.1 0-0.2 0.1-0.2 0.2C46.5-56.4 46.5-56.4 46.5-56.3 46.5-56.3 46.5-56.3 46.5-56.3"/><path class="st2" d="M38.8-56.3c0 0.1 0 0.1 0 0.2 -0.1 0.1-0.1 0.1-0.2 0.1 -0.1 0.1-0.1 0.3-0.1 0.4 -0.2 0.1 0 0.2 0 0.3 0 0 0 0.1 0 0.2 0 0.1 0 0.3 0.1 0.4 0.1 0.2 0.3 0.4 0.4 0.5 0.2 0.1 0.4 0.6 0.6 0.6 0.2 0 0.4-0.1 0.5-0.1 0.2 0 0.4 0 0.6-0.1 0.2-0.1 0.1-0.3 0.3-0.5 0.1-0.1 0.3 0 0.4-0.1 0.2-0.1 0.3-0.3 0.4-0.5 0-0.1 0-0.1 0-0.2 0-0.1 0.1-0.2 0.1-0.3 0-0.1-0.1-0.1-0.1-0.2 0-0.1 0-0.2 0-0.3 0-0.2 0-0.4-0.1-0.5 -0.4-0.7-1.2-0.9-2-0.8 -0.2 0-0.3 0.1-0.4 0.2 -0.2 0.1-0.1 0.2-0.3 0.2 -0.1 0-0.2 0.1-0.2 0.2C38.8-56.4 38.8-56.4 38.8-56.3 38.8-56.3 38.8-56.3 38.8-56.3"/><path class="st2" d="M31.1-56.3c0 0.1 0 0.1 0 0.2 -0.1 0.1-0.1 0.1-0.2 0.1 -0.1 0.1-0.1 0.3-0.1 0.4 -0.2 0.1 0 0.2 0 0.3 0 0 0 0.1 0 0.2 0 0.1 0 0.3 0.1 0.4 0.1 0.2 0.3 0.4 0.4 0.5 0.2 0.1 0.4 0.6 0.6 0.6 0.2 0 0.4-0.1 0.5-0.1 0.2 0 0.4 0 0.6-0.1 0.2-0.1 0.1-0.3 0.3-0.5 0.1-0.1 0.3 0 0.4-0.1 0.2-0.1 0.3-0.3 0.4-0.5 0-0.1 0-0.1 0-0.2 0-0.1 0.1-0.2 0.1-0.3 0-0.1-0.1-0.1-0.1-0.2 0-0.1 0-0.2 0-0.3 0-0.2 0-0.4-0.1-0.5 -0.4-0.7-1.2-0.9-2-0.8 -0.2 0-0.3 0.1-0.4 0.2 -0.2 0.1-0.1 0.2-0.3 0.2 -0.1 0-0.2 0.1-0.2 0.2C31.1-56.4 31.1-56.4 31.1-56.3 31.1-56.3 31.1-56.3 31.1-56.3"/><path class="st2" d="M23.5-56.3c0 0.1 0 0.1 0 0.2 -0.1 0.1-0.1 0.1-0.2 0.1 -0.1 0.1-0.1 0.3-0.1 0.4 -0.2 0.1 0 0.2 0 0.3 0 0 0 0.1 0 0.2 0 0.1 0 0.3 0.1 0.4 0.1 0.2 0.3 0.4 0.4 0.5 0.2 0.1 0.4 0.6 0.6 0.6 0.2 0 0.4-0.1 0.5-0.1 0.2 0 0.4 0 0.6-0.1 0.2-0.1 0.1-0.3 0.3-0.5 0.1-0.1 0.3 0 0.4-0.1 0.2-0.1 0.3-0.3 0.4-0.5 0-0.1 0-0.1 0-0.2 0-0.1 0.1-0.2 0.1-0.3 0-0.1-0.1-0.1-0.1-0.2 0-0.1 0-0.2 0-0.3 0-0.2 0-0.4-0.1-0.5 -0.4-0.7-1.2-0.9-2-0.8 -0.2 0-0.3 0.1-0.4 0.2 -0.2 0.1-0.1 0.2-0.3 0.2 -0.1 0-0.2 0.1-0.2 0.2C23.5-56.4 23.5-56.4 23.5-56.3 23.5-56.3 23.5-56.3 23.5-56.3"/><path class="st2" d="M15.8-56.3c0 0.1 0 0.1 0 0.2 -0.1 0.1-0.1 0.1-0.2 0.1 -0.1 0.1-0.1 0.3-0.1 0.4 -0.2 0.1 0 0.2 0 0.3 0 0 0 0.1 0 0.2 0 0.1 0 0.3 0.1 0.4 0.1 0.2 0.3 0.4 0.4 0.5 0.2 0.1 0.4 0.6 0.6 0.6 0.2 0 0.4-0.1 0.5-0.1 0.2 0 0.4 0 0.6-0.1 0.2-0.1 0.1-0.3 0.3-0.5 0.1-0.1 0.3 0 0.4-0.1 0.2-0.1 0.3-0.3 0.4-0.5 0-0.1 0-0.1 0-0.2 0-0.1 0.1-0.2 0.1-0.3 0-0.1-0.1-0.1-0.1-0.2 0-0.1 0-0.2 0-0.3 0-0.2 0-0.4-0.1-0.5 -0.4-0.7-1.2-0.9-2-0.8 -0.2 0-0.3 0.1-0.4 0.2 -0.2 0.1-0.1 0.2-0.3 0.2 -0.1 0-0.2 0.1-0.2 0.2C15.8-56.4 15.8-56.4 15.8-56.3 15.8-56.3 15.8-56.3 15.8-56.3"/><path class="st2" d="M8.2-56.3c0 0.1 0 0.1 0 0.2C8.1-56.1 8-56.1 8-56c-0.1 0.1-0.1 0.3-0.1 0.4 -0.2 0.1 0 0.2 0 0.3 0 0 0 0.1 0 0.2 0 0.1 0 0.3 0.1 0.4 0.1 0.2 0.3 0.4 0.4 0.5 0.2 0.1 0.4 0.6 0.6 0.6 0.2 0 0.4-0.1 0.5-0.1 0.2 0 0.4 0 0.6-0.1 0.2-0.1 0.1-0.3 0.3-0.5 0.1-0.1 0.3 0 0.4-0.1 0.2-0.1 0.3-0.3 0.4-0.5 0-0.1 0-0.1 0-0.2 0-0.1 0.1-0.2 0.1-0.3 0-0.1-0.1-0.1-0.1-0.2 0-0.1 0-0.2 0-0.3 0-0.2 0-0.4-0.1-0.5 -0.4-0.7-1.2-0.9-2-0.8 -0.2 0-0.3 0.1-0.4 0.2 -0.2 0.1-0.1 0.2-0.3 0.2 -0.1 0-0.2 0.1-0.2 0.2C8.2-56.4 8.2-56.4 8.2-56.3 8.1-56.3 8.1-56.3 8.2-56.3"/><path class="st2" d="M0.5-56.3c0 0.1 0 0.1 0 0.2 -0.1 0.1-0.1 0.1-0.2 0.1 -0.1 0.1-0.1 0.3-0.1 0.4 -0.2 0.1 0 0.2 0 0.3 0 0 0 0.1 0 0.2 0 0.1 0 0.3 0.1 0.4 0.1 0.2 0.3 0.4 0.4 0.5 0.2 0.1 0.4 0.6 0.6 0.6 0.2 0 0.4-0.1 0.5-0.1 0.2 0 0.4 0 0.6-0.1 0.2-0.1 0.1-0.3 0.3-0.5 0.1-0.1 0.3 0 0.4-0.1 0.2-0.1 0.3-0.3 0.4-0.5 0-0.1 0-0.1 0-0.2 0-0.1 0.1-0.2 0.1-0.3 0-0.1-0.1-0.1-0.1-0.2 0-0.1 0-0.2 0-0.3 0-0.2 0-0.4-0.1-0.5 -0.4-0.7-1.2-0.9-2-0.8 -0.2 0-0.3 0.1-0.4 0.2 -0.2 0.1-0.1 0.2-0.3 0.2 -0.1 0-0.2 0.1-0.2 0.2C0.5-56.4 0.5-56.4 0.5-56.3 0.5-56.3 0.5-56.3 0.5-56.3"/><path class="st2" d="M69.4-48.7c0 0.1 0 0.1 0 0.2 -0.1 0.1-0.1 0.1-0.2 0.1 -0.1 0.1-0.1 0.3-0.1 0.4 -0.2 0.1 0 0.2 0 0.3 0 0 0 0.1 0 0.2 0 0.1 0 0.3 0.1 0.4 0.1 0.2 0.3 0.4 0.4 0.5 0.2 0.1 0.4 0.6 0.6 0.6 0.2 0 0.4-0.1 0.5-0.1 0.2 0 0.4 0 0.6-0.1 0.2-0.1 0.1-0.3 0.3-0.5 0.1-0.1 0.3 0 0.4-0.1 0.2-0.1 0.3-0.3 0.4-0.5 0-0.1 0-0.1 0-0.2 0-0.1 0.1-0.2 0.1-0.3 0-0.1-0.1-0.1-0.1-0.2 0-0.1 0-0.2 0-0.3 0-0.2 0-0.4-0.1-0.5 -0.4-0.7-1.2-0.9-2-0.8 -0.2 0-0.3 0.1-0.4 0.2 -0.2 0.1-0.1 0.2-0.3 0.2 -0.1 0-0.2 0.1-0.2 0.2C69.4-48.7 69.4-48.8 69.4-48.7 69.4-48.7 69.4-48.7 69.4-48.7"/><path class="st2" d="M61.8-48.7c0 0.1 0 0.1 0 0.2 -0.1 0.1-0.1 0.1-0.2 0.1 -0.1 0.1-0.1 0.3-0.1 0.4 -0.2 0.1 0 0.2 0 0.3 0 0 0 0.1 0 0.2 0 0.1 0 0.3 0.1 0.4 0.1 0.2 0.3 0.4 0.4 0.5 0.2 0.1 0.4 0.6 0.6 0.6 0.2 0 0.4-0.1 0.5-0.1 0.2 0 0.4 0 0.6-0.1 0.2-0.1 0.1-0.3 0.3-0.5 0.1-0.1 0.3 0 0.4-0.1 0.2-0.1 0.3-0.3 0.4-0.5 0-0.1 0-0.1 0-0.2 0-0.1 0.1-0.2 0.1-0.3 0-0.1-0.1-0.1-0.1-0.2 0-0.1 0-0.2 0-0.3 0-0.2 0-0.4-0.1-0.5 -0.4-0.7-1.2-0.9-2-0.8 -0.2 0-0.3 0.1-0.4 0.2 -0.2 0.1-0.1 0.2-0.3 0.2 -0.1 0-0.2 0.1-0.2 0.2C61.8-48.7 61.8-48.8 61.8-48.7 61.8-48.7 61.8-48.7 61.8-48.7"/><path class="st2" d="M54.1-48.7c0 0.1 0 0.1 0 0.2 -0.1 0.1-0.1 0.1-0.2 0.1 -0.1 0.1-0.1 0.3-0.1 0.4 -0.2 0.1 0 0.2 0 0.3 0 0 0 0.1 0 0.2 0 0.1 0 0.3 0.1 0.4 0.1 0.2 0.3 0.4 0.4 0.5 0.2 0.1 0.4 0.6 0.6 0.6 0.2 0 0.4-0.1 0.5-0.1 0.2 0 0.4 0 0.6-0.1 0.2-0.1 0.1-0.3 0.3-0.5 0.1-0.1 0.3 0 0.4-0.1 0.2-0.1 0.3-0.3 0.4-0.5 0-0.1 0-0.1 0-0.2 0-0.1 0.1-0.2 0.1-0.3 0-0.1-0.1-0.1-0.1-0.2 0-0.1 0-0.2 0-0.3 0-0.2 0-0.4-0.1-0.5 -0.4-0.7-1.2-0.9-2-0.8 -0.2 0-0.3 0.1-0.4 0.2 -0.2 0.1-0.1 0.2-0.3 0.2 -0.1 0-0.2 0.1-0.2 0.2C54.1-48.7 54.1-48.8 54.1-48.7 54.1-48.7 54.1-48.7 54.1-48.7"/><path class="st2" d="M46.5-48.7c0 0.1 0 0.1 0 0.2 -0.1 0.1-0.1 0.1-0.2 0.1 -0.1 0.1-0.1 0.3-0.1 0.4 -0.2 0.1 0 0.2 0 0.3 0 0 0 0.1 0 0.2 0 0.1 0 0.3 0.1 0.4 0.1 0.2 0.3 0.4 0.4 0.5 0.2 0.1 0.4 0.6 0.6 0.6 0.2 0 0.4-0.1 0.5-0.1 0.2 0 0.4 0 0.6-0.1 0.2-0.1 0.1-0.3 0.3-0.5 0.1-0.1 0.3 0 0.4-0.1 0.2-0.1 0.3-0.3 0.4-0.5 0-0.1 0-0.1 0-0.2 0-0.1 0.1-0.2 0.1-0.3 0-0.1-0.1-0.1-0.1-0.2 0-0.1 0-0.2 0-0.3 0-0.2 0-0.4-0.1-0.5 -0.4-0.7-1.2-0.9-2-0.8 -0.2 0-0.3 0.1-0.4 0.2 -0.2 0.1-0.1 0.2-0.3 0.2 -0.1 0-0.2 0.1-0.2 0.2C46.5-48.7 46.5-48.8 46.5-48.7 46.5-48.7 46.5-48.7 46.5-48.7"/><path class="st2" d="M38.8-48.7c0 0.1 0 0.1 0 0.2 -0.1 0.1-0.1 0.1-0.2 0.1 -0.1 0.1-0.1 0.3-0.1 0.4 -0.2 0.1 0 0.2 0 0.3 0 0 0 0.1 0 0.2 0 0.1 0 0.3 0.1 0.4 0.1 0.2 0.3 0.4 0.4 0.5 0.2 0.1 0.4 0.6 0.6 0.6 0.2 0 0.4-0.1 0.5-0.1 0.2 0 0.4 0 0.6-0.1 0.2-0.1 0.1-0.3 0.3-0.5 0.1-0.1 0.3 0 0.4-0.1 0.2-0.1 0.3-0.3 0.4-0.5 0-0.1 0-0.1 0-0.2 0-0.1 0.1-0.2 0.1-0.3 0-0.1-0.1-0.1-0.1-0.2 0-0.1 0-0.2 0-0.3 0-0.2 0-0.4-0.1-0.5 -0.4-0.7-1.2-0.9-2-0.8 -0.2 0-0.3 0.1-0.4 0.2 -0.2 0.1-0.1 0.2-0.3 0.2 -0.1 0-0.2 0.1-0.2 0.2C38.8-48.7 38.8-48.8 38.8-48.7 38.8-48.7 38.8-48.7 38.8-48.7"/><path class="st2" d="M31.1-48.7c0 0.1 0 0.1 0 0.2 -0.1 0.1-0.1 0.1-0.2 0.1 -0.1 0.1-0.1 0.3-0.1 0.4 -0.2 0.1 0 0.2 0 0.3 0 0 0 0.1 0 0.2 0 0.1 0 0.3 0.1 0.4 0.1 0.2 0.3 0.4 0.4 0.5 0.2 0.1 0.4 0.6 0.6 0.6 0.2 0 0.4-0.1 0.5-0.1 0.2 0 0.4 0 0.6-0.1 0.2-0.1 0.1-0.3 0.3-0.5 0.1-0.1 0.3 0 0.4-0.1 0.2-0.1 0.3-0.3 0.4-0.5 0-0.1 0-0.1 0-0.2 0-0.1 0.1-0.2 0.1-0.3 0-0.1-0.1-0.1-0.1-0.2 0-0.1 0-0.2 0-0.3 0-0.2 0-0.4-0.1-0.5 -0.4-0.7-1.2-0.9-2-0.8 -0.2 0-0.3 0.1-0.4 0.2 -0.2 0.1-0.1 0.2-0.3 0.2 -0.1 0-0.2 0.1-0.2 0.2C31.1-48.7 31.1-48.8 31.1-48.7 31.1-48.7 31.1-48.7 31.1-48.7"/><path class="st2" d="M23.5-48.7c0 0.1 0 0.1 0 0.2 -0.1 0.1-0.1 0.1-0.2 0.1 -0.1 0.1-0.1 0.3-0.1 0.4 -0.2 0.1 0 0.2 0 0.3 0 0 0 0.1 0 0.2 0 0.1 0 0.3 0.1 0.4 0.1 0.2 0.3 0.4 0.4 0.5 0.2 0.1 0.4 0.6 0.6 0.6 0.2 0 0.4-0.1 0.5-0.1 0.2 0 0.4 0 0.6-0.1 0.2-0.1 0.1-0.3 0.3-0.5 0.1-0.1 0.3 0 0.4-0.1 0.2-0.1 0.3-0.3 0.4-0.5 0-0.1 0-0.1 0-0.2 0-0.1 0.1-0.2 0.1-0.3 0-0.1-0.1-0.1-0.1-0.2 0-0.1 0-0.2 0-0.3 0-0.2 0-0.4-0.1-0.5 -0.4-0.7-1.2-0.9-2-0.8 -0.2 0-0.3 0.1-0.4 0.2 -0.2 0.1-0.1 0.2-0.3 0.2 -0.1 0-0.2 0.1-0.2 0.2C23.5-48.7 23.5-48.8 23.5-48.7 23.5-48.7 23.5-48.7 23.5-48.7"/><path class="st2" d="M15.8-48.7c0 0.1 0 0.1 0 0.2 -0.1 0.1-0.1 0.1-0.2 0.1 -0.1 0.1-0.1 0.3-0.1 0.4 -0.2 0.1 0 0.2 0 0.3 0 0 0 0.1 0 0.2 0 0.1 0 0.3 0.1 0.4 0.1 0.2 0.3 0.4 0.4 0.5 0.2 0.1 0.4 0.6 0.6 0.6 0.2 0 0.4-0.1 0.5-0.1 0.2 0 0.4 0 0.6-0.1 0.2-0.1 0.1-0.3 0.3-0.5 0.1-0.1 0.3 0 0.4-0.1 0.2-0.1 0.3-0.3 0.4-0.5 0-0.1 0-0.1 0-0.2 0-0.1 0.1-0.2 0.1-0.3 0-0.1-0.1-0.1-0.1-0.2 0-0.1 0-0.2 0-0.3 0-0.2 0-0.4-0.1-0.5 -0.4-0.7-1.2-0.9-2-0.8 -0.2 0-0.3 0.1-0.4 0.2 -0.2 0.1-0.1 0.2-0.3 0.2 -0.1 0-0.2 0.1-0.2 0.2C15.8-48.7 15.8-48.8 15.8-48.7 15.8-48.7 15.8-48.7 15.8-48.7"/><path class="st2" d="M8.2-48.7c0 0.1 0 0.1 0 0.2C8.1-48.4 8-48.4 8-48.4c-0.1 0.1-0.1 0.3-0.1 0.4 -0.2 0.1 0 0.2 0 0.3 0 0 0 0.1 0 0.2 0 0.1 0 0.3 0.1 0.4 0.1 0.2 0.3 0.4 0.4 0.5C8.5-46.4 8.7-46 8.9-46c0.2 0 0.4-0.1 0.5-0.1 0.2 0 0.4 0 0.6-0.1 0.2-0.1 0.1-0.3 0.3-0.5 0.1-0.1 0.3 0 0.4-0.1 0.2-0.1 0.3-0.3 0.4-0.5 0-0.1 0-0.1 0-0.2 0-0.1 0.1-0.2 0.1-0.3 0-0.1-0.1-0.1-0.1-0.2 0-0.1 0-0.2 0-0.3 0-0.2 0-0.4-0.1-0.5 -0.4-0.7-1.2-0.9-2-0.8 -0.2 0-0.3 0.1-0.4 0.2 -0.2 0.1-0.1 0.2-0.3 0.2 -0.1 0-0.2 0.1-0.2 0.2C8.2-48.7 8.2-48.8 8.2-48.7 8.1-48.7 8.1-48.7 8.2-48.7"/><path class="st2" d="M0.5-48.7c0 0.1 0 0.1 0 0.2 -0.1 0.1-0.1 0.1-0.2 0.1 -0.1 0.1-0.1 0.3-0.1 0.4 -0.2 0.1 0 0.2 0 0.3 0 0 0 0.1 0 0.2 0 0.1 0 0.3 0.1 0.4 0.1 0.2 0.3 0.4 0.4 0.5C0.9-46.4 1-46 1.3-46c0.2 0 0.4-0.1 0.5-0.1 0.2 0 0.4 0 0.6-0.1 0.2-0.1 0.1-0.3 0.3-0.5 0.1-0.1 0.3 0 0.4-0.1 0.2-0.1 0.3-0.3 0.4-0.5 0-0.1 0-0.1 0-0.2 0-0.1 0.1-0.2 0.1-0.3 0-0.1-0.1-0.1-0.1-0.2 0-0.1 0-0.2 0-0.3 0-0.2 0-0.4-0.1-0.5 -0.4-0.7-1.2-0.9-2-0.8 -0.2 0-0.3 0.1-0.4 0.2 -0.2 0.1-0.1 0.2-0.3 0.2 -0.1 0-0.2 0.1-0.2 0.2C0.5-48.7 0.5-48.8 0.5-48.7 0.5-48.7 0.5-48.7 0.5-48.7"/><path class="st2" d="M69.4-41c0 0.1 0 0.1 0 0.2 -0.1 0.1-0.1 0.1-0.2 0.1 -0.1 0.1-0.1 0.3-0.1 0.4 -0.2 0.1 0 0.2 0 0.3 0 0 0 0.1 0 0.2 0 0.1 0 0.3 0.1 0.4 0.1 0.2 0.3 0.4 0.4 0.5 0.2 0.1 0.4 0.6 0.6 0.6 0.2 0 0.4-0.1 0.5-0.1 0.2 0 0.4 0 0.6-0.1 0.2-0.1 0.1-0.3 0.3-0.5 0.1-0.1 0.3 0 0.4-0.1 0.2-0.1 0.3-0.3 0.4-0.5 0-0.1 0-0.1 0-0.2 0-0.1 0.1-0.2 0.1-0.3 0-0.1-0.1-0.1-0.1-0.2 0-0.1 0-0.2 0-0.3 0-0.2 0-0.4-0.1-0.5 -0.4-0.7-1.2-0.9-2-0.8 -0.2 0-0.3 0.1-0.4 0.2 -0.2 0.1-0.1 0.2-0.3 0.2 -0.1 0-0.2 0.1-0.2 0.2C69.4-41.1 69.4-41.1 69.4-41 69.4-41 69.4-41 69.4-41"/><path class="st2" d="M61.8-41c0 0.1 0 0.1 0 0.2 -0.1 0.1-0.1 0.1-0.2 0.1 -0.1 0.1-0.1 0.3-0.1 0.4 -0.2 0.1 0 0.2 0 0.3 0 0 0 0.1 0 0.2 0 0.1 0 0.3 0.1 0.4 0.1 0.2 0.3 0.4 0.4 0.5 0.2 0.1 0.4 0.6 0.6 0.6 0.2 0 0.4-0.1 0.5-0.1 0.2 0 0.4 0 0.6-0.1 0.2-0.1 0.1-0.3 0.3-0.5 0.1-0.1 0.3 0 0.4-0.1 0.2-0.1 0.3-0.3 0.4-0.5 0-0.1 0-0.1 0-0.2 0-0.1 0.1-0.2 0.1-0.3 0-0.1-0.1-0.1-0.1-0.2 0-0.1 0-0.2 0-0.3 0-0.2 0-0.4-0.1-0.5 -0.4-0.7-1.2-0.9-2-0.8 -0.2 0-0.3 0.1-0.4 0.2 -0.2 0.1-0.1 0.2-0.3 0.2 -0.1 0-0.2 0.1-0.2 0.2C61.8-41.1 61.8-41.1 61.8-41 61.8-41 61.8-41 61.8-41"/><path class="st2" d="M54.1-41c0 0.1 0 0.1 0 0.2 -0.1 0.1-0.1 0.1-0.2 0.1 -0.1 0.1-0.1 0.3-0.1 0.4 -0.2 0.1 0 0.2 0 0.3 0 0 0 0.1 0 0.2 0 0.1 0 0.3 0.1 0.4 0.1 0.2 0.3 0.4 0.4 0.5 0.2 0.1 0.4 0.6 0.6 0.6 0.2 0 0.4-0.1 0.5-0.1 0.2 0 0.4 0 0.6-0.1 0.2-0.1 0.1-0.3 0.3-0.5 0.1-0.1 0.3 0 0.4-0.1 0.2-0.1 0.3-0.3 0.4-0.5 0-0.1 0-0.1 0-0.2 0-0.1 0.1-0.2 0.1-0.3 0-0.1-0.1-0.1-0.1-0.2 0-0.1 0-0.2 0-0.3 0-0.2 0-0.4-0.1-0.5 -0.4-0.7-1.2-0.9-2-0.8 -0.2 0-0.3 0.1-0.4 0.2 -0.2 0.1-0.1 0.2-0.3 0.2 -0.1 0-0.2 0.1-0.2 0.2C54.1-41.1 54.1-41.1 54.1-41 54.1-41 54.1-41 54.1-41"/><path class="st2" d="M46.5-41c0 0.1 0 0.1 0 0.2 -0.1 0.1-0.1 0.1-0.2 0.1 -0.1 0.1-0.1 0.3-0.1 0.4 -0.2 0.1 0 0.2 0 0.3 0 0 0 0.1 0 0.2 0 0.1 0 0.3 0.1 0.4 0.1 0.2 0.3 0.4 0.4 0.5 0.2 0.1 0.4 0.6 0.6 0.6 0.2 0 0.4-0.1 0.5-0.1 0.2 0 0.4 0 0.6-0.1 0.2-0.1 0.1-0.3 0.3-0.5 0.1-0.1 0.3 0 0.4-0.1 0.2-0.1 0.3-0.3 0.4-0.5 0-0.1 0-0.1 0-0.2 0-0.1 0.1-0.2 0.1-0.3 0-0.1-0.1-0.1-0.1-0.2 0-0.1 0-0.2 0-0.3 0-0.2 0-0.4-0.1-0.5 -0.4-0.7-1.2-0.9-2-0.8 -0.2 0-0.3 0.1-0.4 0.2 -0.2 0.1-0.1 0.2-0.3 0.2 -0.1 0-0.2 0.1-0.2 0.2C46.5-41.1 46.5-41.1 46.5-41 46.5-41 46.5-41 46.5-41"/><path class="st2" d="M38.8-41c0 0.1 0 0.1 0 0.2 -0.1 0.1-0.1 0.1-0.2 0.1 -0.1 0.1-0.1 0.3-0.1 0.4 -0.2 0.1 0 0.2 0 0.3 0 0 0 0.1 0 0.2 0 0.1 0 0.3 0.1 0.4 0.1 0.2 0.3 0.4 0.4 0.5 0.2 0.1 0.4 0.6 0.6 0.6 0.2 0 0.4-0.1 0.5-0.1 0.2 0 0.4 0 0.6-0.1 0.2-0.1 0.1-0.3 0.3-0.5 0.1-0.1 0.3 0 0.4-0.1 0.2-0.1 0.3-0.3 0.4-0.5 0-0.1 0-0.1 0-0.2 0-0.1 0.1-0.2 0.1-0.3 0-0.1-0.1-0.1-0.1-0.2 0-0.1 0-0.2 0-0.3 0-0.2 0-0.4-0.1-0.5 -0.4-0.7-1.2-0.9-2-0.8 -0.2 0-0.3 0.1-0.4 0.2 -0.2 0.1-0.1 0.2-0.3 0.2 -0.1 0-0.2 0.1-0.2 0.2C38.8-41.1 38.8-41.1 38.8-41 38.8-41 38.8-41 38.8-41"/><path class="st2" d="M31.1-41c0 0.1 0 0.1 0 0.2 -0.1 0.1-0.1 0.1-0.2 0.1 -0.1 0.1-0.1 0.3-0.1 0.4 -0.2 0.1 0 0.2 0 0.3 0 0 0 0.1 0 0.2 0 0.1 0 0.3 0.1 0.4 0.1 0.2 0.3 0.4 0.4 0.5 0.2 0.1 0.4 0.6 0.6 0.6 0.2 0 0.4-0.1 0.5-0.1 0.2 0 0.4 0 0.6-0.1 0.2-0.1 0.1-0.3 0.3-0.5 0.1-0.1 0.3 0 0.4-0.1 0.2-0.1 0.3-0.3 0.4-0.5 0-0.1 0-0.1 0-0.2 0-0.1 0.1-0.2 0.1-0.3 0-0.1-0.1-0.1-0.1-0.2 0-0.1 0-0.2 0-0.3 0-0.2 0-0.4-0.1-0.5 -0.4-0.7-1.2-0.9-2-0.8 -0.2 0-0.3 0.1-0.4 0.2 -0.2 0.1-0.1 0.2-0.3 0.2 -0.1 0-0.2 0.1-0.2 0.2C31.1-41.1 31.1-41.1 31.1-41 31.1-41 31.1-41 31.1-41"/><path class="st2" d="M23.5-41c0 0.1 0 0.1 0 0.2 -0.1 0.1-0.1 0.1-0.2 0.1 -0.1 0.1-0.1 0.3-0.1 0.4 -0.2 0.1 0 0.2 0 0.3 0 0 0 0.1 0 0.2 0 0.1 0 0.3 0.1 0.4 0.1 0.2 0.3 0.4 0.4 0.5 0.2 0.1 0.4 0.6 0.6 0.6 0.2 0 0.4-0.1 0.5-0.1 0.2 0 0.4 0 0.6-0.1 0.2-0.1 0.1-0.3 0.3-0.5 0.1-0.1 0.3 0 0.4-0.1 0.2-0.1 0.3-0.3 0.4-0.5 0-0.1 0-0.1 0-0.2 0-0.1 0.1-0.2 0.1-0.3 0-0.1-0.1-0.1-0.1-0.2 0-0.1 0-0.2 0-0.3 0-0.2 0-0.4-0.1-0.5 -0.4-0.7-1.2-0.9-2-0.8 -0.2 0-0.3 0.1-0.4 0.2 -0.2 0.1-0.1 0.2-0.3 0.2 -0.1 0-0.2 0.1-0.2 0.2C23.5-41.1 23.5-41.1 23.5-41 23.5-41 23.5-41 23.5-41"/><path class="st2" d="M15.8-41c0 0.1 0 0.1 0 0.2 -0.1 0.1-0.1 0.1-0.2 0.1 -0.1 0.1-0.1 0.3-0.1 0.4 -0.2 0.1 0 0.2 0 0.3 0 0 0 0.1 0 0.2 0 0.1 0 0.3 0.1 0.4 0.1 0.2 0.3 0.4 0.4 0.5 0.2 0.1 0.4 0.6 0.6 0.6 0.2 0 0.4-0.1 0.5-0.1 0.2 0 0.4 0 0.6-0.1 0.2-0.1 0.1-0.3 0.3-0.5 0.1-0.1 0.3 0 0.4-0.1 0.2-0.1 0.3-0.3 0.4-0.5 0-0.1 0-0.1 0-0.2 0-0.1 0.1-0.2 0.1-0.3 0-0.1-0.1-0.1-0.1-0.2 0-0.1 0-0.2 0-0.3 0-0.2 0-0.4-0.1-0.5 -0.4-0.7-1.2-0.9-2-0.8 -0.2 0-0.3 0.1-0.4 0.2 -0.2 0.1-0.1 0.2-0.3 0.2 -0.1 0-0.2 0.1-0.2 0.2C15.8-41.1 15.8-41.1 15.8-41 15.8-41 15.8-41 15.8-41"/><path class="st2" d="M8.2-41c0 0.1 0 0.1 0 0.2C8.1-40.8 8-40.8 8-40.7c-0.1 0.1-0.1 0.3-0.1 0.4 -0.2 0.1 0 0.2 0 0.3 0 0 0 0.1 0 0.2 0 0.1 0 0.3 0.1 0.4 0.1 0.2 0.3 0.4 0.4 0.5 0.2 0.1 0.4 0.6 0.6 0.6 0.2 0 0.4-0.1 0.5-0.1 0.2 0 0.4 0 0.6-0.1 0.2-0.1 0.1-0.3 0.3-0.5 0.1-0.1 0.3 0 0.4-0.1 0.2-0.1 0.3-0.3 0.4-0.5 0-0.1 0-0.1 0-0.2 0-0.1 0.1-0.2 0.1-0.3 0-0.1-0.1-0.1-0.1-0.2 0-0.1 0-0.2 0-0.3 0-0.2 0-0.4-0.1-0.5 -0.4-0.7-1.2-0.9-2-0.8 -0.2 0-0.3 0.1-0.4 0.2 -0.2 0.1-0.1 0.2-0.3 0.2 -0.1 0-0.2 0.1-0.2 0.2C8.2-41.1 8.2-41.1 8.2-41 8.1-41 8.1-41 8.2-41"/><path class="st2" d="M0.5-41c0 0.1 0 0.1 0 0.2 -0.1 0.1-0.1 0.1-0.2 0.1 -0.1 0.1-0.1 0.3-0.1 0.4 -0.2 0.1 0 0.2 0 0.3 0 0 0 0.1 0 0.2 0 0.1 0 0.3 0.1 0.4 0.1 0.2 0.3 0.4 0.4 0.5 0.2 0.1 0.4 0.6 0.6 0.6 0.2 0 0.4-0.1 0.5-0.1 0.2 0 0.4 0 0.6-0.1 0.2-0.1 0.1-0.3 0.3-0.5C2.8-39 3-39 3.1-39c0.2-0.1 0.3-0.3 0.4-0.5 0-0.1 0-0.1 0-0.2 0-0.1 0.1-0.2 0.1-0.3 0-0.1-0.1-0.1-0.1-0.2 0-0.1 0-0.2 0-0.3 0-0.2 0-0.4-0.1-0.5 -0.4-0.7-1.2-0.9-2-0.8 -0.2 0-0.3 0.1-0.4 0.2 -0.2 0.1-0.1 0.2-0.3 0.2 -0.1 0-0.2 0.1-0.2 0.2C0.5-41.1 0.5-41.1 0.5-41 0.5-41 0.5-41 0.5-41"/><path class="st2" d="M69.4-33.4c0 0.1 0 0.1 0 0.2 -0.1 0.1-0.1 0.1-0.2 0.1 -0.1 0.1-0.1 0.3-0.1 0.4 -0.2 0.1 0 0.2 0 0.3 0 0 0 0.1 0 0.2 0 0.1 0 0.3 0.1 0.4 0.1 0.2 0.3 0.4 0.4 0.5 0.2 0.1 0.4 0.6 0.6 0.6 0.2 0 0.4-0.1 0.5-0.1 0.2 0 0.4 0 0.6-0.1 0.2-0.1 0.1-0.3 0.3-0.5 0.1-0.1 0.3 0 0.4-0.1 0.2-0.1 0.3-0.3 0.4-0.5 0-0.1 0-0.1 0-0.2 0-0.1 0.1-0.2 0.1-0.3 0-0.1-0.1-0.1-0.1-0.2 0-0.1 0-0.2 0-0.3 0-0.2 0-0.4-0.1-0.5 -0.4-0.7-1.2-0.9-2-0.8 -0.2 0-0.3 0.1-0.4 0.2 -0.2 0.1-0.1 0.2-0.3 0.2 -0.1 0-0.2 0.1-0.2 0.2C69.4-33.4 69.4-33.5 69.4-33.4 69.4-33.4 69.4-33.4 69.4-33.4"/><path class="st2" d="M61.8-33.4c0 0.1 0 0.1 0 0.2 -0.1 0.1-0.1 0.1-0.2 0.1 -0.1 0.1-0.1 0.3-0.1 0.4 -0.2 0.1 0 0.2 0 0.3 0 0 0 0.1 0 0.2 0 0.1 0 0.3 0.1 0.4 0.1 0.2 0.3 0.4 0.4 0.5 0.2 0.1 0.4 0.6 0.6 0.6 0.2 0 0.4-0.1 0.5-0.1 0.2 0 0.4 0 0.6-0.1 0.2-0.1 0.1-0.3 0.3-0.5 0.1-0.1 0.3 0 0.4-0.1 0.2-0.1 0.3-0.3 0.4-0.5 0-0.1 0-0.1 0-0.2 0-0.1 0.1-0.2 0.1-0.3 0-0.1-0.1-0.1-0.1-0.2 0-0.1 0-0.2 0-0.3 0-0.2 0-0.4-0.1-0.5 -0.4-0.7-1.2-0.9-2-0.8 -0.2 0-0.3 0.1-0.4 0.2 -0.2 0.1-0.1 0.2-0.3 0.2 -0.1 0-0.2 0.1-0.2 0.2C61.8-33.4 61.8-33.5 61.8-33.4 61.8-33.4 61.8-33.4 61.8-33.4"/><path class="st2" d="M54.1-33.4c0 0.1 0 0.1 0 0.2 -0.1 0.1-0.1 0.1-0.2 0.1 -0.1 0.1-0.1 0.3-0.1 0.4 -0.2 0.1 0 0.2 0 0.3 0 0 0 0.1 0 0.2 0 0.1 0 0.3 0.1 0.4 0.1 0.2 0.3 0.4 0.4 0.5 0.2 0.1 0.4 0.6 0.6 0.6 0.2 0 0.4-0.1 0.5-0.1 0.2 0 0.4 0 0.6-0.1 0.2-0.1 0.1-0.3 0.3-0.5 0.1-0.1 0.3 0 0.4-0.1 0.2-0.1 0.3-0.3 0.4-0.5 0-0.1 0-0.1 0-0.2 0-0.1 0.1-0.2 0.1-0.3 0-0.1-0.1-0.1-0.1-0.2 0-0.1 0-0.2 0-0.3 0-0.2 0-0.4-0.1-0.5 -0.4-0.7-1.2-0.9-2-0.8 -0.2 0-0.3 0.1-0.4 0.2 -0.2 0.1-0.1 0.2-0.3 0.2 -0.1 0-0.2 0.1-0.2 0.2C54.1-33.4 54.1-33.5 54.1-33.4 54.1-33.4 54.1-33.4 54.1-33.4"/><path class="st2" d="M46.5-33.4c0 0.1 0 0.1 0 0.2 -0.1 0.1-0.1 0.1-0.2 0.1 -0.1 0.1-0.1 0.3-0.1 0.4 -0.2 0.1 0 0.2 0 0.3 0 0 0 0.1 0 0.2 0 0.1 0 0.3 0.1 0.4 0.1 0.2 0.3 0.4 0.4 0.5 0.2 0.1 0.4 0.6 0.6 0.6 0.2 0 0.4-0.1 0.5-0.1 0.2 0 0.4 0 0.6-0.1 0.2-0.1 0.1-0.3 0.3-0.5 0.1-0.1 0.3 0 0.4-0.1 0.2-0.1 0.3-0.3 0.4-0.5 0-0.1 0-0.1 0-0.2 0-0.1 0.1-0.2 0.1-0.3 0-0.1-0.1-0.1-0.1-0.2 0-0.1 0-0.2 0-0.3 0-0.2 0-0.4-0.1-0.5 -0.4-0.7-1.2-0.9-2-0.8 -0.2 0-0.3 0.1-0.4 0.2 -0.2 0.1-0.1 0.2-0.3 0.2 -0.1 0-0.2 0.1-0.2 0.2C46.5-33.4 46.5-33.5 46.5-33.4 46.5-33.4 46.5-33.4 46.5-33.4"/><path class="st2" d="M38.8-33.4c0 0.1 0 0.1 0 0.2 -0.1 0.1-0.1 0.1-0.2 0.1 -0.1 0.1-0.1 0.3-0.1 0.4 -0.2 0.1 0 0.2 0 0.3 0 0 0 0.1 0 0.2 0 0.1 0 0.3 0.1 0.4 0.1 0.2 0.3 0.4 0.4 0.5 0.2 0.1 0.4 0.6 0.6 0.6 0.2 0 0.4-0.1 0.5-0.1 0.2 0 0.4 0 0.6-0.1 0.2-0.1 0.1-0.3 0.3-0.5 0.1-0.1 0.3 0 0.4-0.1 0.2-0.1 0.3-0.3 0.4-0.5 0-0.1 0-0.1 0-0.2 0-0.1 0.1-0.2 0.1-0.3 0-0.1-0.1-0.1-0.1-0.2 0-0.1 0-0.2 0-0.3 0-0.2 0-0.4-0.1-0.5 -0.4-0.7-1.2-0.9-2-0.8 -0.2 0-0.3 0.1-0.4 0.2 -0.2 0.1-0.1 0.2-0.3 0.2 -0.1 0-0.2 0.1-0.2 0.2C38.8-33.4 38.8-33.5 38.8-33.4 38.8-33.4 38.8-33.4 38.8-33.4"/><path class="st2" d="M31.1-33.4c0 0.1 0 0.1 0 0.2 -0.1 0.1-0.1 0.1-0.2 0.1 -0.1 0.1-0.1 0.3-0.1 0.4 -0.2 0.1 0 0.2 0 0.3 0 0 0 0.1 0 0.2 0 0.1 0 0.3 0.1 0.4 0.1 0.2 0.3 0.4 0.4 0.5 0.2 0.1 0.4 0.6 0.6 0.6 0.2 0 0.4-0.1 0.5-0.1 0.2 0 0.4 0 0.6-0.1 0.2-0.1 0.1-0.3 0.3-0.5 0.1-0.1 0.3 0 0.4-0.1 0.2-0.1 0.3-0.3 0.4-0.5 0-0.1 0-0.1 0-0.2 0-0.1 0.1-0.2 0.1-0.3 0-0.1-0.1-0.1-0.1-0.2 0-0.1 0-0.2 0-0.3 0-0.2 0-0.4-0.1-0.5 -0.4-0.7-1.2-0.9-2-0.8 -0.2 0-0.3 0.1-0.4 0.2 -0.2 0.1-0.1 0.2-0.3 0.2 -0.1 0-0.2 0.1-0.2 0.2C31.1-33.4 31.1-33.5 31.1-33.4 31.1-33.4 31.1-33.4 31.1-33.4"/><path class="st2" d="M23.5-33.4c0 0.1 0 0.1 0 0.2 -0.1 0.1-0.1 0.1-0.2 0.1 -0.1 0.1-0.1 0.3-0.1 0.4 -0.2 0.1 0 0.2 0 0.3 0 0 0 0.1 0 0.2 0 0.1 0 0.3 0.1 0.4 0.1 0.2 0.3 0.4 0.4 0.5 0.2 0.1 0.4 0.6 0.6 0.6 0.2 0 0.4-0.1 0.5-0.1 0.2 0 0.4 0 0.6-0.1 0.2-0.1 0.1-0.3 0.3-0.5 0.1-0.1 0.3 0 0.4-0.1 0.2-0.1 0.3-0.3 0.4-0.5 0-0.1 0-0.1 0-0.2 0-0.1 0.1-0.2 0.1-0.3 0-0.1-0.1-0.1-0.1-0.2 0-0.1 0-0.2 0-0.3 0-0.2 0-0.4-0.1-0.5 -0.4-0.7-1.2-0.9-2-0.8 -0.2 0-0.3 0.1-0.4 0.2 -0.2 0.1-0.1 0.2-0.3 0.2 -0.1 0-0.2 0.1-0.2 0.2C23.5-33.4 23.5-33.5 23.5-33.4 23.5-33.4 23.5-33.4 23.5-33.4"/><path class="st2" d="M15.8-33.4c0 0.1 0 0.1 0 0.2 -0.1 0.1-0.1 0.1-0.2 0.1 -0.1 0.1-0.1 0.3-0.1 0.4 -0.2 0.1 0 0.2 0 0.3 0 0 0 0.1 0 0.2 0 0.1 0 0.3 0.1 0.4 0.1 0.2 0.3 0.4 0.4 0.5 0.2 0.1 0.4 0.6 0.6 0.6 0.2 0 0.4-0.1 0.5-0.1 0.2 0 0.4 0 0.6-0.1 0.2-0.1 0.1-0.3 0.3-0.5 0.1-0.1 0.3 0 0.4-0.1 0.2-0.1 0.3-0.3 0.4-0.5 0-0.1 0-0.1 0-0.2 0-0.1 0.1-0.2 0.1-0.3 0-0.1-0.1-0.1-0.1-0.2 0-0.1 0-0.2 0-0.3 0-0.2 0-0.4-0.1-0.5 -0.4-0.7-1.2-0.9-2-0.8 -0.2 0-0.3 0.1-0.4 0.2 -0.2 0.1-0.1 0.2-0.3 0.2 -0.1 0-0.2 0.1-0.2 0.2C15.8-33.4 15.8-33.5 15.8-33.4 15.8-33.4 15.8-33.4 15.8-33.4"/><path class="st2" d="M8.2-33.4c0 0.1 0 0.1 0 0.2C8.1-33.1 8-33.1 8-33.1c-0.1 0.1-0.1 0.3-0.1 0.4 -0.2 0.1 0 0.2 0 0.3 0 0 0 0.1 0 0.2 0 0.1 0 0.3 0.1 0.4 0.1 0.2 0.3 0.4 0.4 0.5 0.2 0.1 0.4 0.6 0.6 0.6 0.2 0 0.4-0.1 0.5-0.1 0.2 0 0.4 0 0.6-0.1 0.2-0.1 0.1-0.3 0.3-0.5 0.1-0.1 0.3 0 0.4-0.1 0.2-0.1 0.3-0.3 0.4-0.5 0-0.1 0-0.1 0-0.2 0-0.1 0.1-0.2 0.1-0.3 0-0.1-0.1-0.1-0.1-0.2 0-0.1 0-0.2 0-0.3 0-0.2 0-0.4-0.1-0.5 -0.4-0.7-1.2-0.9-2-0.8 -0.2 0-0.3 0.1-0.4 0.2 -0.2 0.1-0.1 0.2-0.3 0.2 -0.1 0-0.2 0.1-0.2 0.2C8.2-33.4 8.2-33.5 8.2-33.4 8.1-33.4 8.1-33.4 8.2-33.4"/><path class="st2" d="M0.5-33.4c0 0.1 0 0.1 0 0.2 -0.1 0.1-0.1 0.1-0.2 0.1 -0.1 0.1-0.1 0.3-0.1 0.4 -0.2 0.1 0 0.2 0 0.3 0 0 0 0.1 0 0.2 0 0.1 0 0.3 0.1 0.4 0.1 0.2 0.3 0.4 0.4 0.5 0.2 0.1 0.4 0.6 0.6 0.6 0.2 0 0.4-0.1 0.5-0.1 0.2 0 0.4 0 0.6-0.1 0.2-0.1 0.1-0.3 0.3-0.5 0.1-0.1 0.3 0 0.4-0.1 0.2-0.1 0.3-0.3 0.4-0.5 0-0.1 0-0.1 0-0.2 0-0.1 0.1-0.2 0.1-0.3 0-0.1-0.1-0.1-0.1-0.2 0-0.1 0-0.2 0-0.3 0-0.2 0-0.4-0.1-0.5 -0.4-0.7-1.2-0.9-2-0.8 -0.2 0-0.3 0.1-0.4 0.2 -0.2 0.1-0.1 0.2-0.3 0.2 -0.1 0-0.2 0.1-0.2 0.2C0.5-33.4 0.5-33.5 0.5-33.4 0.5-33.4 0.5-33.4 0.5-33.4"/><path class="st2" d="M69.4-25.7c0 0.1 0 0.1 0 0.2 -0.1 0.1-0.1 0.1-0.2 0.1 -0.1 0.1-0.1 0.3-0.1 0.4 -0.2 0.1 0 0.2 0 0.3 0 0 0 0.1 0 0.2 0 0.1 0 0.3 0.1 0.4 0.1 0.2 0.3 0.4 0.4 0.5 0.2 0.1 0.4 0.6 0.6 0.6 0.2 0 0.4-0.1 0.5-0.1 0.2 0 0.4 0 0.6-0.1 0.2-0.1 0.1-0.3 0.3-0.5 0.1-0.1 0.3 0 0.4-0.1 0.2-0.1 0.3-0.3 0.4-0.5 0-0.1 0-0.1 0-0.2 0-0.1 0.1-0.2 0.1-0.3 0-0.1-0.1-0.1-0.1-0.2 0-0.1 0-0.2 0-0.3 0-0.2 0-0.4-0.1-0.5 -0.4-0.7-1.2-0.9-2-0.8 -0.2 0-0.3 0.1-0.4 0.2 -0.2 0.1-0.1 0.2-0.3 0.2 -0.1 0-0.2 0.1-0.2 0.2C69.4-25.8 69.4-25.8 69.4-25.7 69.4-25.7 69.4-25.7 69.4-25.7"/><path class="st2" d="M61.8-25.7c0 0.1 0 0.1 0 0.2 -0.1 0.1-0.1 0.1-0.2 0.1 -0.1 0.1-0.1 0.3-0.1 0.4 -0.2 0.1 0 0.2 0 0.3 0 0 0 0.1 0 0.2 0 0.1 0 0.3 0.1 0.4 0.1 0.2 0.3 0.4 0.4 0.5 0.2 0.1 0.4 0.6 0.6 0.6 0.2 0 0.4-0.1 0.5-0.1 0.2 0 0.4 0 0.6-0.1 0.2-0.1 0.1-0.3 0.3-0.5 0.1-0.1 0.3 0 0.4-0.1 0.2-0.1 0.3-0.3 0.4-0.5 0-0.1 0-0.1 0-0.2 0-0.1 0.1-0.2 0.1-0.3 0-0.1-0.1-0.1-0.1-0.2 0-0.1 0-0.2 0-0.3 0-0.2 0-0.4-0.1-0.5 -0.4-0.7-1.2-0.9-2-0.8 -0.2 0-0.3 0.1-0.4 0.2 -0.2 0.1-0.1 0.2-0.3 0.2 -0.1 0-0.2 0.1-0.2 0.2C61.8-25.8 61.8-25.8 61.8-25.7 61.8-25.7 61.8-25.7 61.8-25.7"/><path class="st2" d="M54.1-25.7c0 0.1 0 0.1 0 0.2 -0.1 0.1-0.1 0.1-0.2 0.1 -0.1 0.1-0.1 0.3-0.1 0.4 -0.2 0.1 0 0.2 0 0.3 0 0 0 0.1 0 0.2 0 0.1 0 0.3 0.1 0.4 0.1 0.2 0.3 0.4 0.4 0.5 0.2 0.1 0.4 0.6 0.6 0.6 0.2 0 0.4-0.1 0.5-0.1 0.2 0 0.4 0 0.6-0.1 0.2-0.1 0.1-0.3 0.3-0.5 0.1-0.1 0.3 0 0.4-0.1 0.2-0.1 0.3-0.3 0.4-0.5 0-0.1 0-0.1 0-0.2 0-0.1 0.1-0.2 0.1-0.3 0-0.1-0.1-0.1-0.1-0.2 0-0.1 0-0.2 0-0.3 0-0.2 0-0.4-0.1-0.5 -0.4-0.7-1.2-0.9-2-0.8 -0.2 0-0.3 0.1-0.4 0.2 -0.2 0.1-0.1 0.2-0.3 0.2 -0.1 0-0.2 0.1-0.2 0.2C54.1-25.8 54.1-25.8 54.1-25.7 54.1-25.7 54.1-25.7 54.1-25.7"/><path class="st2" d="M46.5-25.7c0 0.1 0 0.1 0 0.2 -0.1 0.1-0.1 0.1-0.2 0.1 -0.1 0.1-0.1 0.3-0.1 0.4 -0.2 0.1 0 0.2 0 0.3 0 0 0 0.1 0 0.2 0 0.1 0 0.3 0.1 0.4 0.1 0.2 0.3 0.4 0.4 0.5 0.2 0.1 0.4 0.6 0.6 0.6 0.2 0 0.4-0.1 0.5-0.1 0.2 0 0.4 0 0.6-0.1 0.2-0.1 0.1-0.3 0.3-0.5 0.1-0.1 0.3 0 0.4-0.1 0.2-0.1 0.3-0.3 0.4-0.5 0-0.1 0-0.1 0-0.2 0-0.1 0.1-0.2 0.1-0.3 0-0.1-0.1-0.1-0.1-0.2 0-0.1 0-0.2 0-0.3 0-0.2 0-0.4-0.1-0.5 -0.4-0.7-1.2-0.9-2-0.8 -0.2 0-0.3 0.1-0.4 0.2 -0.2 0.1-0.1 0.2-0.3 0.2 -0.1 0-0.2 0.1-0.2 0.2C46.5-25.8 46.5-25.8 46.5-25.7 46.5-25.7 46.5-25.7 46.5-25.7"/><path class="st2" d="M38.8-25.7c0 0.1 0 0.1 0 0.2 -0.1 0.1-0.1 0.1-0.2 0.1 -0.1 0.1-0.1 0.3-0.1 0.4 -0.2 0.1 0 0.2 0 0.3 0 0 0 0.1 0 0.2 0 0.1 0 0.3 0.1 0.4 0.1 0.2 0.3 0.4 0.4 0.5 0.2 0.1 0.4 0.6 0.6 0.6 0.2 0 0.4-0.1 0.5-0.1 0.2 0 0.4 0 0.6-0.1 0.2-0.1 0.1-0.3 0.3-0.5 0.1-0.1 0.3 0 0.4-0.1 0.2-0.1 0.3-0.3 0.4-0.5 0-0.1 0-0.1 0-0.2 0-0.1 0.1-0.2 0.1-0.3 0-0.1-0.1-0.1-0.1-0.2 0-0.1 0-0.2 0-0.3 0-0.2 0-0.4-0.1-0.5 -0.4-0.7-1.2-0.9-2-0.8 -0.2 0-0.3 0.1-0.4 0.2 -0.2 0.1-0.1 0.2-0.3 0.2 -0.1 0-0.2 0.1-0.2 0.2C38.8-25.8 38.8-25.8 38.8-25.7 38.8-25.7 38.8-25.7 38.8-25.7"/><path class="st2" d="M31.1-25.7c0 0.1 0 0.1 0 0.2 -0.1 0.1-0.1 0.1-0.2 0.1 -0.1 0.1-0.1 0.3-0.1 0.4 -0.2 0.1 0 0.2 0 0.3 0 0 0 0.1 0 0.2 0 0.1 0 0.3 0.1 0.4 0.1 0.2 0.3 0.4 0.4 0.5 0.2 0.1 0.4 0.6 0.6 0.6 0.2 0 0.4-0.1 0.5-0.1 0.2 0 0.4 0 0.6-0.1 0.2-0.1 0.1-0.3 0.3-0.5 0.1-0.1 0.3 0 0.4-0.1 0.2-0.1 0.3-0.3 0.4-0.5 0-0.1 0-0.1 0-0.2 0-0.1 0.1-0.2 0.1-0.3 0-0.1-0.1-0.1-0.1-0.2 0-0.1 0-0.2 0-0.3 0-0.2 0-0.4-0.1-0.5 -0.4-0.7-1.2-0.9-2-0.8 -0.2 0-0.3 0.1-0.4 0.2 -0.2 0.1-0.1 0.2-0.3 0.2 -0.1 0-0.2 0.1-0.2 0.2C31.1-25.8 31.1-25.8 31.1-25.7 31.1-25.7 31.1-25.7 31.1-25.7"/><path class="st2" d="M23.5-25.7c0 0.1 0 0.1 0 0.2 -0.1 0.1-0.1 0.1-0.2 0.1 -0.1 0.1-0.1 0.3-0.1 0.4 -0.2 0.1 0 0.2 0 0.3 0 0 0 0.1 0 0.2 0 0.1 0 0.3 0.1 0.4 0.1 0.2 0.3 0.4 0.4 0.5 0.2 0.1 0.4 0.6 0.6 0.6 0.2 0 0.4-0.1 0.5-0.1 0.2 0 0.4 0 0.6-0.1 0.2-0.1 0.1-0.3 0.3-0.5 0.1-0.1 0.3 0 0.4-0.1 0.2-0.1 0.3-0.3 0.4-0.5 0-0.1 0-0.1 0-0.2 0-0.1 0.1-0.2 0.1-0.3 0-0.1-0.1-0.1-0.1-0.2 0-0.1 0-0.2 0-0.3 0-0.2 0-0.4-0.1-0.5 -0.4-0.7-1.2-0.9-2-0.8 -0.2 0-0.3 0.1-0.4 0.2 -0.2 0.1-0.1 0.2-0.3 0.2 -0.1 0-0.2 0.1-0.2 0.2C23.5-25.8 23.5-25.8 23.5-25.7 23.5-25.7 23.5-25.7 23.5-25.7"/><path class="st2" d="M15.8-25.7c0 0.1 0 0.1 0 0.2 -0.1 0.1-0.1 0.1-0.2 0.1 -0.1 0.1-0.1 0.3-0.1 0.4 -0.2 0.1 0 0.2 0 0.3 0 0 0 0.1 0 0.2 0 0.1 0 0.3 0.1 0.4 0.1 0.2 0.3 0.4 0.4 0.5 0.2 0.1 0.4 0.6 0.6 0.6 0.2 0 0.4-0.1 0.5-0.1 0.2 0 0.4 0 0.6-0.1 0.2-0.1 0.1-0.3 0.3-0.5 0.1-0.1 0.3 0 0.4-0.1 0.2-0.1 0.3-0.3 0.4-0.5 0-0.1 0-0.1 0-0.2 0-0.1 0.1-0.2 0.1-0.3 0-0.1-0.1-0.1-0.1-0.2 0-0.1 0-0.2 0-0.3 0-0.2 0-0.4-0.1-0.5 -0.4-0.7-1.2-0.9-2-0.8 -0.2 0-0.3 0.1-0.4 0.2 -0.2 0.1-0.1 0.2-0.3 0.2 -0.1 0-0.2 0.1-0.2 0.2C15.8-25.8 15.8-25.8 15.8-25.7 15.8-25.7 15.8-25.7 15.8-25.7"/><path class="st2" d="M8.2-25.7c0 0.1 0 0.1 0 0.2C8.1-25.4 8-25.5 8-25.4c-0.1 0.1-0.1 0.3-0.1 0.4 -0.2 0.1 0 0.2 0 0.3 0 0 0 0.1 0 0.2 0 0.1 0 0.3 0.1 0.4C8-24 8.2-23.8 8.3-23.6c0.2 0.1 0.4 0.6 0.6 0.6 0.2 0 0.4-0.1 0.5-0.1 0.2 0 0.4 0 0.6-0.1 0.2-0.1 0.1-0.3 0.3-0.5 0.1-0.1 0.3 0 0.4-0.1 0.2-0.1 0.3-0.3 0.4-0.5 0-0.1 0-0.1 0-0.2 0-0.1 0.1-0.2 0.1-0.3 0-0.1-0.1-0.1-0.1-0.2 0-0.1 0-0.2 0-0.3 0-0.2 0-0.4-0.1-0.5 -0.4-0.7-1.2-0.9-2-0.8 -0.2 0-0.3 0.1-0.4 0.2 -0.2 0.1-0.1 0.2-0.3 0.2 -0.1 0-0.2 0.1-0.2 0.2C8.2-25.8 8.2-25.8 8.2-25.7 8.1-25.7 8.1-25.7 8.2-25.7"/><path class="st2" d="M0.5-25.7c0 0.1 0 0.1 0 0.2 -0.1 0.1-0.1 0.1-0.2 0.1 -0.1 0.1-0.1 0.3-0.1 0.4 -0.2 0.1 0 0.2 0 0.3 0 0 0 0.1 0 0.2 0 0.1 0 0.3 0.1 0.4 0.1 0.2 0.3 0.4 0.4 0.5C0.9-23.5 1-23.1 1.3-23c0.2 0 0.4-0.1 0.5-0.1 0.2 0 0.4 0 0.6-0.1 0.2-0.1 0.1-0.3 0.3-0.5 0.1-0.1 0.3 0 0.4-0.1 0.2-0.1 0.3-0.3 0.4-0.5 0-0.1 0-0.1 0-0.2 0-0.1 0.1-0.2 0.1-0.3 0-0.1-0.1-0.1-0.1-0.2 0-0.1 0-0.2 0-0.3 0-0.2 0-0.4-0.1-0.5 -0.4-0.7-1.2-0.9-2-0.8 -0.2 0-0.3 0.1-0.4 0.2 -0.2 0.1-0.1 0.2-0.3 0.2 -0.1 0-0.2 0.1-0.2 0.2C0.5-25.8 0.5-25.8 0.5-25.7 0.5-25.7 0.5-25.7 0.5-25.7"/><path class="st2" d="M69.4-18.1c0 0.1 0 0.1 0 0.2 -0.1 0.1-0.1 0.1-0.2 0.1 -0.1 0.1-0.1 0.3-0.1 0.4 -0.2 0.1 0 0.2 0 0.3 0 0 0 0.1 0 0.2 0 0.1 0 0.3 0.1 0.4 0.1 0.2 0.3 0.4 0.4 0.5 0.2 0.1 0.4 0.6 0.6 0.6 0.2 0 0.4-0.1 0.5-0.1 0.2 0 0.4 0 0.6-0.1 0.2-0.1 0.1-0.3 0.3-0.5 0.1-0.1 0.3 0 0.4-0.1 0.2-0.1 0.3-0.3 0.4-0.5 0-0.1 0-0.1 0-0.2 0-0.1 0.1-0.2 0.1-0.3 0-0.1-0.1-0.1-0.1-0.2 0-0.1 0-0.2 0-0.3 0-0.2 0-0.4-0.1-0.5 -0.4-0.7-1.2-0.9-2-0.8 -0.2 0-0.3 0.1-0.4 0.2 -0.2 0.1-0.1 0.2-0.3 0.2 -0.1 0-0.2 0.1-0.2 0.2C69.4-18.1 69.4-18.2 69.4-18.1 69.4-18 69.4-18.1 69.4-18.1"/><path class="st2" d="M61.8-18.1c0 0.1 0 0.1 0 0.2 -0.1 0.1-0.1 0.1-0.2 0.1 -0.1 0.1-0.1 0.3-0.1 0.4 -0.2 0.1 0 0.2 0 0.3 0 0 0 0.1 0 0.2 0 0.1 0 0.3 0.1 0.4 0.1 0.2 0.3 0.4 0.4 0.5 0.2 0.1 0.4 0.6 0.6 0.6 0.2 0 0.4-0.1 0.5-0.1 0.2 0 0.4 0 0.6-0.1 0.2-0.1 0.1-0.3 0.3-0.5 0.1-0.1 0.3 0 0.4-0.1 0.2-0.1 0.3-0.3 0.4-0.5 0-0.1 0-0.1 0-0.2 0-0.1 0.1-0.2 0.1-0.3 0-0.1-0.1-0.1-0.1-0.2 0-0.1 0-0.2 0-0.3 0-0.2 0-0.4-0.1-0.5 -0.4-0.7-1.2-0.9-2-0.8 -0.2 0-0.3 0.1-0.4 0.2 -0.2 0.1-0.1 0.2-0.3 0.2 -0.1 0-0.2 0.1-0.2 0.2C61.8-18.1 61.8-18.2 61.8-18.1 61.8-18 61.8-18.1 61.8-18.1"/><path class="st2" d="M54.1-18.1c0 0.1 0 0.1 0 0.2 -0.1 0.1-0.1 0.1-0.2 0.1 -0.1 0.1-0.1 0.3-0.1 0.4 -0.2 0.1 0 0.2 0 0.3 0 0 0 0.1 0 0.2 0 0.1 0 0.3 0.1 0.4 0.1 0.2 0.3 0.4 0.4 0.5 0.2 0.1 0.4 0.6 0.6 0.6 0.2 0 0.4-0.1 0.5-0.1 0.2 0 0.4 0 0.6-0.1 0.2-0.1 0.1-0.3 0.3-0.5 0.1-0.1 0.3 0 0.4-0.1 0.2-0.1 0.3-0.3 0.4-0.5 0-0.1 0-0.1 0-0.2 0-0.1 0.1-0.2 0.1-0.3 0-0.1-0.1-0.1-0.1-0.2 0-0.1 0-0.2 0-0.3 0-0.2 0-0.4-0.1-0.5 -0.4-0.7-1.2-0.9-2-0.8 -0.2 0-0.3 0.1-0.4 0.2 -0.2 0.1-0.1 0.2-0.3 0.2 -0.1 0-0.2 0.1-0.2 0.2C54.1-18.1 54.1-18.2 54.1-18.1 54.1-18 54.1-18.1 54.1-18.1"/><path class="st2" d="M46.5-18.1c0 0.1 0 0.1 0 0.2 -0.1 0.1-0.1 0.1-0.2 0.1 -0.1 0.1-0.1 0.3-0.1 0.4 -0.2 0.1 0 0.2 0 0.3 0 0 0 0.1 0 0.2 0 0.1 0 0.3 0.1 0.4 0.1 0.2 0.3 0.4 0.4 0.5 0.2 0.1 0.4 0.6 0.6 0.6 0.2 0 0.4-0.1 0.5-0.1 0.2 0 0.4 0 0.6-0.1 0.2-0.1 0.1-0.3 0.3-0.5 0.1-0.1 0.3 0 0.4-0.1 0.2-0.1 0.3-0.3 0.4-0.5 0-0.1 0-0.1 0-0.2 0-0.1 0.1-0.2 0.1-0.3 0-0.1-0.1-0.1-0.1-0.2 0-0.1 0-0.2 0-0.3 0-0.2 0-0.4-0.1-0.5 -0.4-0.7-1.2-0.9-2-0.8 -0.2 0-0.3 0.1-0.4 0.2 -0.2 0.1-0.1 0.2-0.3 0.2 -0.1 0-0.2 0.1-0.2 0.2C46.5-18.1 46.5-18.2 46.5-18.1 46.5-18 46.5-18.1 46.5-18.1"/><path class="st2" d="M38.8-18.1c0 0.1 0 0.1 0 0.2 -0.1 0.1-0.1 0.1-0.2 0.1 -0.1 0.1-0.1 0.3-0.1 0.4 -0.2 0.1 0 0.2 0 0.3 0 0 0 0.1 0 0.2 0 0.1 0 0.3 0.1 0.4 0.1 0.2 0.3 0.4 0.4 0.5 0.2 0.1 0.4 0.6 0.6 0.6 0.2 0 0.4-0.1 0.5-0.1 0.2 0 0.4 0 0.6-0.1 0.2-0.1 0.1-0.3 0.3-0.5 0.1-0.1 0.3 0 0.4-0.1 0.2-0.1 0.3-0.3 0.4-0.5 0-0.1 0-0.1 0-0.2 0-0.1 0.1-0.2 0.1-0.3 0-0.1-0.1-0.1-0.1-0.2 0-0.1 0-0.2 0-0.3 0-0.2 0-0.4-0.1-0.5 -0.4-0.7-1.2-0.9-2-0.8 -0.2 0-0.3 0.1-0.4 0.2 -0.2 0.1-0.1 0.2-0.3 0.2 -0.1 0-0.2 0.1-0.2 0.2C38.8-18.1 38.8-18.2 38.8-18.1 38.8-18 38.8-18.1 38.8-18.1"/><path class="st2" d="M31.1-18.1c0 0.1 0 0.1 0 0.2 -0.1 0.1-0.1 0.1-0.2 0.1 -0.1 0.1-0.1 0.3-0.1 0.4 -0.2 0.1 0 0.2 0 0.3 0 0 0 0.1 0 0.2 0 0.1 0 0.3 0.1 0.4 0.1 0.2 0.3 0.4 0.4 0.5 0.2 0.1 0.4 0.6 0.6 0.6 0.2 0 0.4-0.1 0.5-0.1 0.2 0 0.4 0 0.6-0.1 0.2-0.1 0.1-0.3 0.3-0.5 0.1-0.1 0.3 0 0.4-0.1 0.2-0.1 0.3-0.3 0.4-0.5 0-0.1 0-0.1 0-0.2 0-0.1 0.1-0.2 0.1-0.3 0-0.1-0.1-0.1-0.1-0.2 0-0.1 0-0.2 0-0.3 0-0.2 0-0.4-0.1-0.5 -0.4-0.7-1.2-0.9-2-0.8 -0.2 0-0.3 0.1-0.4 0.2 -0.2 0.1-0.1 0.2-0.3 0.2 -0.1 0-0.2 0.1-0.2 0.2C31.1-18.1 31.1-18.2 31.1-18.1 31.1-18 31.1-18.1 31.1-18.1"/><path class="st2" d="M23.5-18.1c0 0.1 0 0.1 0 0.2 -0.1 0.1-0.1 0.1-0.2 0.1 -0.1 0.1-0.1 0.3-0.1 0.4 -0.2 0.1 0 0.2 0 0.3 0 0 0 0.1 0 0.2 0 0.1 0 0.3 0.1 0.4 0.1 0.2 0.3 0.4 0.4 0.5 0.2 0.1 0.4 0.6 0.6 0.6 0.2 0 0.4-0.1 0.5-0.1 0.2 0 0.4 0 0.6-0.1 0.2-0.1 0.1-0.3 0.3-0.5 0.1-0.1 0.3 0 0.4-0.1 0.2-0.1 0.3-0.3 0.4-0.5 0-0.1 0-0.1 0-0.2 0-0.1 0.1-0.2 0.1-0.3 0-0.1-0.1-0.1-0.1-0.2 0-0.1 0-0.2 0-0.3 0-0.2 0-0.4-0.1-0.5 -0.4-0.7-1.2-0.9-2-0.8 -0.2 0-0.3 0.1-0.4 0.2 -0.2 0.1-0.1 0.2-0.3 0.2 -0.1 0-0.2 0.1-0.2 0.2C23.5-18.1 23.5-18.2 23.5-18.1 23.5-18 23.5-18.1 23.5-18.1"/><path class="st2" d="M15.8-18.1c0 0.1 0 0.1 0 0.2 -0.1 0.1-0.1 0.1-0.2 0.1 -0.1 0.1-0.1 0.3-0.1 0.4 -0.2 0.1 0 0.2 0 0.3 0 0 0 0.1 0 0.2 0 0.1 0 0.3 0.1 0.4 0.1 0.2 0.3 0.4 0.4 0.5 0.2 0.1 0.4 0.6 0.6 0.6 0.2 0 0.4-0.1 0.5-0.1 0.2 0 0.4 0 0.6-0.1 0.2-0.1 0.1-0.3 0.3-0.5 0.1-0.1 0.3 0 0.4-0.1 0.2-0.1 0.3-0.3 0.4-0.5 0-0.1 0-0.1 0-0.2 0-0.1 0.1-0.2 0.1-0.3 0-0.1-0.1-0.1-0.1-0.2 0-0.1 0-0.2 0-0.3 0-0.2 0-0.4-0.1-0.5 -0.4-0.7-1.2-0.9-2-0.8 -0.2 0-0.3 0.1-0.4 0.2 -0.2 0.1-0.1 0.2-0.3 0.2 -0.1 0-0.2 0.1-0.2 0.2C15.8-18.1 15.8-18.2 15.8-18.1 15.8-18 15.8-18.1 15.8-18.1"/><path class="st2" d="M8.2-18.1c0 0.1 0 0.1 0 0.2C8.1-17.8 8-17.8 8-17.8c-0.1 0.1-0.1 0.3-0.1 0.4 -0.2 0.1 0 0.2 0 0.3 0 0 0 0.1 0 0.2 0 0.1 0 0.3 0.1 0.4C8-16.3 8.2-16.1 8.3-16c0.2 0.1 0.4 0.6 0.6 0.6 0.2 0 0.4-0.1 0.5-0.1 0.2 0 0.4 0 0.6-0.1 0.2-0.1 0.1-0.3 0.3-0.5 0.1-0.1 0.3 0 0.4-0.1 0.2-0.1 0.3-0.3 0.4-0.5 0-0.1 0-0.1 0-0.2 0-0.1 0.1-0.2 0.1-0.3 0-0.1-0.1-0.1-0.1-0.2 0-0.1 0-0.2 0-0.3 0-0.2 0-0.4-0.1-0.5 -0.4-0.7-1.2-0.9-2-0.8 -0.2 0-0.3 0.1-0.4 0.2 -0.2 0.1-0.1 0.2-0.3 0.2 -0.1 0-0.2 0.1-0.2 0.2C8.2-18.1 8.2-18.2 8.2-18.1 8.1-18 8.1-18.1 8.2-18.1"/><path class="st2" d="M0.5-18.1c0 0.1 0 0.1 0 0.2 -0.1 0.1-0.1 0.1-0.2 0.1 -0.1 0.1-0.1 0.3-0.1 0.4 -0.2 0.1 0 0.2 0 0.3 0 0 0 0.1 0 0.2 0 0.1 0 0.3 0.1 0.4 0.1 0.2 0.3 0.4 0.4 0.5 0.2 0.1 0.4 0.6 0.6 0.6 0.2 0 0.4-0.1 0.5-0.1 0.2 0 0.4 0 0.6-0.1 0.2-0.1 0.1-0.3 0.3-0.5C2.8-16.1 3-16 3.1-16c0.2-0.1 0.3-0.3 0.4-0.5 0-0.1 0-0.1 0-0.2 0-0.1 0.1-0.2 0.1-0.3 0-0.1-0.1-0.1-0.1-0.2 0-0.1 0-0.2 0-0.3 0-0.2 0-0.4-0.1-0.5 -0.4-0.7-1.2-0.9-2-0.8 -0.2 0-0.3 0.1-0.4 0.2 -0.2 0.1-0.1 0.2-0.3 0.2 -0.1 0-0.2 0.1-0.2 0.2C0.5-18.1 0.5-18.2 0.5-18.1 0.5-18 0.5-18.1 0.5-18.1"/><path class="st2" d="M69.4-10.4c0 0.1 0 0.1 0 0.2 -0.1 0.1-0.1 0.1-0.2 0.1 -0.1 0.1-0.1 0.3-0.1 0.4 -0.2 0.1 0 0.2 0 0.3 0 0 0 0.1 0 0.2 0 0.1 0 0.3 0.1 0.4 0.1 0.2 0.3 0.4 0.4 0.5 0.2 0.1 0.4 0.6 0.6 0.6 0.2 0 0.4-0.1 0.5-0.1 0.2 0 0.4 0 0.6-0.1 0.2-0.1 0.1-0.3 0.3-0.5 0.1-0.1 0.3 0 0.4-0.1 0.2-0.1 0.3-0.3 0.4-0.5 0-0.1 0-0.1 0-0.2 0-0.1 0.1-0.2 0.1-0.3 0-0.1-0.1-0.1-0.1-0.2 0-0.1 0-0.2 0-0.3 0-0.2 0-0.4-0.1-0.5 -0.4-0.7-1.2-0.9-2-0.8 -0.2 0-0.3 0.1-0.4 0.2 -0.2 0.1-0.1 0.2-0.3 0.2 -0.1 0-0.2 0.1-0.2 0.2C69.4-10.5 69.4-10.5 69.4-10.4 69.4-10.4 69.4-10.4 69.4-10.4"/><path class="st2" d="M61.8-10.4c0 0.1 0 0.1 0 0.2 -0.1 0.1-0.1 0.1-0.2 0.1 -0.1 0.1-0.1 0.3-0.1 0.4 -0.2 0.1 0 0.2 0 0.3 0 0 0 0.1 0 0.2 0 0.1 0 0.3 0.1 0.4 0.1 0.2 0.3 0.4 0.4 0.5 0.2 0.1 0.4 0.6 0.6 0.6 0.2 0 0.4-0.1 0.5-0.1 0.2 0 0.4 0 0.6-0.1C63.9-8 63.8-8.2 64-8.3c0.1-0.1 0.3 0 0.4-0.1 0.2-0.1 0.3-0.3 0.4-0.5 0-0.1 0-0.1 0-0.2 0-0.1 0.1-0.2 0.1-0.3 0-0.1-0.1-0.1-0.1-0.2 0-0.1 0-0.2 0-0.3 0-0.2 0-0.4-0.1-0.5 -0.4-0.7-1.2-0.9-2-0.8 -0.2 0-0.3 0.1-0.4 0.2 -0.2 0.1-0.1 0.2-0.3 0.2 -0.1 0-0.2 0.1-0.2 0.2C61.8-10.5 61.8-10.5 61.8-10.4 61.8-10.4 61.8-10.4 61.8-10.4"/><path class="st2" d="M54.1-10.4c0 0.1 0 0.1 0 0.2 -0.1 0.1-0.1 0.1-0.2 0.1 -0.1 0.1-0.1 0.3-0.1 0.4 -0.2 0.1 0 0.2 0 0.3 0 0 0 0.1 0 0.2 0 0.1 0 0.3 0.1 0.4 0.1 0.2 0.3 0.4 0.4 0.5 0.2 0.1 0.4 0.6 0.6 0.6 0.2 0 0.4-0.1 0.5-0.1 0.2 0 0.4 0 0.6-0.1 0.2-0.1 0.1-0.3 0.3-0.5 0.1-0.1 0.3 0 0.4-0.1 0.2-0.1 0.3-0.3 0.4-0.5 0-0.1 0-0.1 0-0.2 0-0.1 0.1-0.2 0.1-0.3 0-0.1-0.1-0.1-0.1-0.2 0-0.1 0-0.2 0-0.3 0-0.2 0-0.4-0.1-0.5 -0.4-0.7-1.2-0.9-2-0.8 -0.2 0-0.3 0.1-0.4 0.2 -0.2 0.1-0.1 0.2-0.3 0.2 -0.1 0-0.2 0.1-0.2 0.2C54.1-10.5 54.1-10.5 54.1-10.4 54.1-10.4 54.1-10.4 54.1-10.4"/><path class="st2" d="M46.5-10.4c0 0.1 0 0.1 0 0.2 -0.1 0.1-0.1 0.1-0.2 0.1 -0.1 0.1-0.1 0.3-0.1 0.4 -0.2 0.1 0 0.2 0 0.3 0 0 0 0.1 0 0.2 0 0.1 0 0.3 0.1 0.4 0.1 0.2 0.3 0.4 0.4 0.5 0.2 0.1 0.4 0.6 0.6 0.6 0.2 0 0.4-0.1 0.5-0.1 0.2 0 0.4 0 0.6-0.1 0.2-0.1 0.1-0.3 0.3-0.5 0.1-0.1 0.3 0 0.4-0.1 0.2-0.1 0.3-0.3 0.4-0.5 0-0.1 0-0.1 0-0.2 0-0.1 0.1-0.2 0.1-0.3 0-0.1-0.1-0.1-0.1-0.2 0-0.1 0-0.2 0-0.3 0-0.2 0-0.4-0.1-0.5 -0.4-0.7-1.2-0.9-2-0.8 -0.2 0-0.3 0.1-0.4 0.2 -0.2 0.1-0.1 0.2-0.3 0.2 -0.1 0-0.2 0.1-0.2 0.2C46.5-10.5 46.5-10.5 46.5-10.4 46.5-10.4 46.5-10.4 46.5-10.4"/><path class="st2" d="M38.8-10.4c0 0.1 0 0.1 0 0.2 -0.1 0.1-0.1 0.1-0.2 0.1 -0.1 0.1-0.1 0.3-0.1 0.4 -0.2 0.1 0 0.2 0 0.3 0 0 0 0.1 0 0.2 0 0.1 0 0.3 0.1 0.4 0.1 0.2 0.3 0.4 0.4 0.5 0.2 0.1 0.4 0.6 0.6 0.6 0.2 0 0.4-0.1 0.5-0.1 0.2 0 0.4 0 0.6-0.1C40.9-8 40.8-8.2 41-8.3c0.1-0.1 0.3 0 0.4-0.1 0.2-0.1 0.3-0.3 0.4-0.5 0-0.1 0-0.1 0-0.2 0-0.1 0.1-0.2 0.1-0.3 0-0.1-0.1-0.1-0.1-0.2 0-0.1 0-0.2 0-0.3 0-0.2 0-0.4-0.1-0.5 -0.4-0.7-1.2-0.9-2-0.8 -0.2 0-0.3 0.1-0.4 0.2 -0.2 0.1-0.1 0.2-0.3 0.2 -0.1 0-0.2 0.1-0.2 0.2C38.8-10.5 38.8-10.5 38.8-10.4 38.8-10.4 38.8-10.4 38.8-10.4"/><path class="st2" d="M31.1-10.4c0 0.1 0 0.1 0 0.2 -0.1 0.1-0.1 0.1-0.2 0.1 -0.1 0.1-0.1 0.3-0.1 0.4 -0.2 0.1 0 0.2 0 0.3 0 0 0 0.1 0 0.2 0 0.1 0 0.3 0.1 0.4 0.1 0.2 0.3 0.4 0.4 0.5 0.2 0.1 0.4 0.6 0.6 0.6 0.2 0 0.4-0.1 0.5-0.1 0.2 0 0.4 0 0.6-0.1 0.2-0.1 0.1-0.3 0.3-0.5 0.1-0.1 0.3 0 0.4-0.1 0.2-0.1 0.3-0.3 0.4-0.5 0-0.1 0-0.1 0-0.2 0-0.1 0.1-0.2 0.1-0.3 0-0.1-0.1-0.1-0.1-0.2 0-0.1 0-0.2 0-0.3 0-0.2 0-0.4-0.1-0.5 -0.4-0.7-1.2-0.9-2-0.8 -0.2 0-0.3 0.1-0.4 0.2 -0.2 0.1-0.1 0.2-0.3 0.2 -0.1 0-0.2 0.1-0.2 0.2C31.1-10.5 31.1-10.5 31.1-10.4 31.1-10.4 31.1-10.4 31.1-10.4"/><path class="st2" d="M23.5-10.4c0 0.1 0 0.1 0 0.2 -0.1 0.1-0.1 0.1-0.2 0.1 -0.1 0.1-0.1 0.3-0.1 0.4 -0.2 0.1 0 0.2 0 0.3 0 0 0 0.1 0 0.2 0 0.1 0 0.3 0.1 0.4 0.1 0.2 0.3 0.4 0.4 0.5 0.2 0.1 0.4 0.6 0.6 0.6 0.2 0 0.4-0.1 0.5-0.1 0.2 0 0.4 0 0.6-0.1 0.2-0.1 0.1-0.3 0.3-0.5 0.1-0.1 0.3 0 0.4-0.1 0.2-0.1 0.3-0.3 0.4-0.5 0-0.1 0-0.1 0-0.2 0-0.1 0.1-0.2 0.1-0.3 0-0.1-0.1-0.1-0.1-0.2 0-0.1 0-0.2 0-0.3 0-0.2 0-0.4-0.1-0.5 -0.4-0.7-1.2-0.9-2-0.8 -0.2 0-0.3 0.1-0.4 0.2 -0.2 0.1-0.1 0.2-0.3 0.2 -0.1 0-0.2 0.1-0.2 0.2C23.5-10.5 23.5-10.5 23.5-10.4 23.5-10.4 23.5-10.4 23.5-10.4"/><path class="st2" d="M15.8-10.4c0 0.1 0 0.1 0 0.2 -0.1 0.1-0.1 0.1-0.2 0.1 -0.1 0.1-0.1 0.3-0.1 0.4 -0.2 0.1 0 0.2 0 0.3 0 0 0 0.1 0 0.2 0 0.1 0 0.3 0.1 0.4 0.1 0.2 0.3 0.4 0.4 0.5 0.2 0.1 0.4 0.6 0.6 0.6 0.2 0 0.4-0.1 0.5-0.1 0.2 0 0.4 0 0.6-0.1C17.9-8 17.8-8.2 18-8.3c0.1-0.1 0.3 0 0.4-0.1 0.2-0.1 0.3-0.3 0.4-0.5 0-0.1 0-0.1 0-0.2 0-0.1 0.1-0.2 0.1-0.3 0-0.1-0.1-0.1-0.1-0.2 0-0.1 0-0.2 0-0.3 0-0.2 0-0.4-0.1-0.5 -0.4-0.7-1.2-0.9-2-0.8 -0.2 0-0.3 0.1-0.4 0.2 -0.2 0.1-0.1 0.2-0.3 0.2 -0.1 0-0.2 0.1-0.2 0.2C15.8-10.5 15.8-10.5 15.8-10.4 15.8-10.4 15.8-10.4 15.8-10.4"/><path class="st2" d="M8.2-10.4c0 0.1 0 0.1 0 0.2C8.1-10.1 8-10.2 8-10.1 7.9-10 7.9-9.8 7.9-9.8c-0.2 0.1 0 0.2 0 0.3 0 0 0 0.1 0 0.2 0 0.1 0 0.3 0.1 0.4C8-8.7 8.2-8.5 8.3-8.3c0.2 0.1 0.4 0.6 0.6 0.6 0.2 0 0.4-0.1 0.5-0.1 0.2 0 0.4 0 0.6-0.1 0.2-0.1 0.1-0.3 0.3-0.5 0.1-0.1 0.3 0 0.4-0.1 0.2-0.1 0.3-0.3 0.4-0.5 0-0.1 0-0.1 0-0.2 0-0.1 0.1-0.2 0.1-0.3 0-0.1-0.1-0.1-0.1-0.2 0-0.1 0-0.2 0-0.3 0-0.2 0-0.4-0.1-0.5 -0.4-0.7-1.2-0.9-2-0.8 -0.2 0-0.3 0.1-0.4 0.2 -0.2 0.1-0.1 0.2-0.3 0.2 -0.1 0-0.2 0.1-0.2 0.2C8.2-10.5 8.2-10.5 8.2-10.4 8.1-10.4 8.1-10.4 8.2-10.4"/><path class="st2" d="M0.5-10.4c0 0.1 0 0.1 0 0.2 -0.1 0.1-0.1 0.1-0.2 0.1C0.3-10 0.2-9.8 0.2-9.8c-0.2 0.1 0 0.2 0 0.3 0 0 0 0.1 0 0.2 0 0.1 0 0.3 0.1 0.4 0.1 0.2 0.3 0.4 0.4 0.5C0.9-8.2 1-7.8 1.3-7.7c0.2 0 0.4-0.1 0.5-0.1 0.2 0 0.4 0 0.6-0.1C2.6-8 2.5-8.2 2.7-8.3c0.1-0.1 0.3 0 0.4-0.1 0.2-0.1 0.3-0.3 0.4-0.5 0-0.1 0-0.1 0-0.2 0-0.1 0.1-0.2 0.1-0.3 0-0.1-0.1-0.1-0.1-0.2 0-0.1 0-0.2 0-0.3 0-0.2 0-0.4-0.1-0.5 -0.4-0.7-1.2-0.9-2-0.8 -0.2 0-0.3 0.1-0.4 0.2 -0.2 0.1-0.1 0.2-0.3 0.2 -0.1 0-0.2 0.1-0.2 0.2C0.5-10.5 0.5-10.5 0.5-10.4 0.5-10.4 0.5-10.4 0.5-10.4"/><path class="st2" d="M69.4-2.8c0 0.1 0 0.1 0 0.2 -0.1 0.1-0.1 0.1-0.2 0.1 -0.1 0.1-0.1 0.3-0.1 0.4 -0.2 0.1 0 0.2 0 0.3 0 0 0 0.1 0 0.2 0 0.1 0 0.3 0.1 0.4 0.1 0.2 0.3 0.4 0.4 0.5C69.8-0.5 70-0.1 70.2 0c0.2 0 0.4-0.1 0.5-0.1 0.2 0 0.4 0 0.6-0.1 0.2-0.1 0.1-0.3 0.3-0.5 0.1-0.1 0.3 0 0.4-0.1 0.2-0.1 0.3-0.3 0.4-0.5 0-0.1 0-0.1 0-0.2 0-0.1 0.1-0.2 0.1-0.3 0-0.1-0.1-0.1-0.1-0.2 0-0.1 0-0.2 0-0.3 0-0.2 0-0.4-0.1-0.5 -0.4-0.7-1.2-0.9-2-0.8 -0.2 0-0.3 0.1-0.4 0.2 -0.2 0.1-0.1 0.2-0.3 0.2 -0.1 0-0.2 0.1-0.2 0.2C69.4-2.8 69.4-2.9 69.4-2.8 69.4-2.7 69.4-2.8 69.4-2.8"/><path class="st2" d="M61.8-2.8c0 0.1 0 0.1 0 0.2 -0.1 0.1-0.1 0.1-0.2 0.1 -0.1 0.1-0.1 0.3-0.1 0.4 -0.2 0.1 0 0.2 0 0.3 0 0 0 0.1 0 0.2 0 0.1 0 0.3 0.1 0.4C61.6-1 61.8-0.8 62-0.7c0.2 0.1 0.4 0.6 0.6 0.6 0.2 0 0.4-0.1 0.5-0.1 0.2 0 0.4 0 0.6-0.1 0.2-0.1 0.1-0.3 0.3-0.5 0.1-0.1 0.3 0 0.4-0.1 0.2-0.1 0.3-0.3 0.4-0.5 0-0.1 0-0.1 0-0.2 0-0.1 0.1-0.2 0.1-0.3 0-0.1-0.1-0.1-0.1-0.2 0-0.1 0-0.2 0-0.3 0-0.2 0-0.4-0.1-0.5 -0.4-0.7-1.2-0.9-2-0.8 -0.2 0-0.3 0.1-0.4 0.2 -0.2 0.1-0.1 0.2-0.3 0.2 -0.1 0-0.2 0.1-0.2 0.2C61.8-2.8 61.8-2.9 61.8-2.8 61.8-2.7 61.8-2.8 61.8-2.8"/><path class="st2" d="M54.1-2.8c0 0.1 0 0.1 0 0.2C54-2.5 54-2.5 53.9-2.5c-0.1 0.1-0.1 0.3-0.1 0.4 -0.2 0.1 0 0.2 0 0.3 0 0 0 0.1 0 0.2 0 0.1 0 0.3 0.1 0.4C54-1 54.1-0.8 54.3-0.7c0.2 0.1 0.4 0.6 0.6 0.6 0.2 0 0.4-0.1 0.5-0.1 0.2 0 0.4 0 0.6-0.1 0.2-0.1 0.1-0.3 0.3-0.5 0.1-0.1 0.3 0 0.4-0.1C56.9-0.8 57-1 57.1-1.2c0-0.1 0-0.1 0-0.2 0-0.1 0.1-0.2 0.1-0.3 0-0.1-0.1-0.1-0.1-0.2 0-0.1 0-0.2 0-0.3 0-0.2 0-0.4-0.1-0.5 -0.4-0.7-1.2-0.9-2-0.8 -0.2 0-0.3 0.1-0.4 0.2 -0.2 0.1-0.1 0.2-0.3 0.2 -0.1 0-0.2 0.1-0.2 0.2C54.1-2.8 54.1-2.9 54.1-2.8 54.1-2.7 54.1-2.8 54.1-2.8"/><path class="st2" d="M46.5-2.8c0 0.1 0 0.1 0 0.2 -0.1 0.1-0.1 0.1-0.2 0.1 -0.1 0.1-0.1 0.3-0.1 0.4 -0.2 0.1 0 0.2 0 0.3 0 0 0 0.1 0 0.2 0 0.1 0 0.3 0.1 0.4 0.1 0.2 0.3 0.4 0.4 0.5C46.8-0.5 47-0.1 47.2 0c0.2 0 0.4-0.1 0.5-0.1 0.2 0 0.4 0 0.6-0.1 0.2-0.1 0.1-0.3 0.3-0.5 0.1-0.1 0.3 0 0.4-0.1 0.2-0.1 0.3-0.3 0.4-0.5 0-0.1 0-0.1 0-0.2 0-0.1 0.1-0.2 0.1-0.3 0-0.1-0.1-0.1-0.1-0.2 0-0.1 0-0.2 0-0.3 0-0.2 0-0.4-0.1-0.5 -0.4-0.7-1.2-0.9-2-0.8 -0.2 0-0.3 0.1-0.4 0.2 -0.2 0.1-0.1 0.2-0.3 0.2 -0.1 0-0.2 0.1-0.2 0.2C46.5-2.8 46.5-2.9 46.5-2.8 46.5-2.7 46.5-2.8 46.5-2.8"/><path class="st2" d="M38.8-2.8c0 0.1 0 0.1 0 0.2 -0.1 0.1-0.1 0.1-0.2 0.1 -0.1 0.1-0.1 0.3-0.1 0.4 -0.2 0.1 0 0.2 0 0.3 0 0 0 0.1 0 0.2 0 0.1 0 0.3 0.1 0.4C38.6-1 38.8-0.8 39-0.7c0.2 0.1 0.4 0.6 0.6 0.6 0.2 0 0.4-0.1 0.5-0.1 0.2 0 0.4 0 0.6-0.1 0.2-0.1 0.1-0.3 0.3-0.5 0.1-0.1 0.3 0 0.4-0.1 0.2-0.1 0.3-0.3 0.4-0.5 0-0.1 0-0.1 0-0.2 0-0.1 0.1-0.2 0.1-0.3 0-0.1-0.1-0.1-0.1-0.2 0-0.1 0-0.2 0-0.3 0-0.2 0-0.4-0.1-0.5 -0.4-0.7-1.2-0.9-2-0.8 -0.2 0-0.3 0.1-0.4 0.2 -0.2 0.1-0.1 0.2-0.3 0.2 -0.1 0-0.2 0.1-0.2 0.2C38.8-2.8 38.8-2.9 38.8-2.8 38.8-2.7 38.8-2.8 38.8-2.8"/><path class="st2" d="M31.1-2.8c0 0.1 0 0.1 0 0.2 -0.1 0.1-0.1 0.1-0.2 0.1 -0.1 0.1-0.1 0.3-0.1 0.4 -0.2 0.1 0 0.2 0 0.3 0 0 0 0.1 0 0.2 0 0.1 0 0.3 0.1 0.4C31-1 31.1-0.8 31.3-0.7c0.2 0.1 0.4 0.6 0.6 0.6 0.2 0 0.4-0.1 0.5-0.1 0.2 0 0.4 0 0.6-0.1 0.2-0.1 0.1-0.3 0.3-0.5 0.1-0.1 0.3 0 0.4-0.1 0.2-0.1 0.3-0.3 0.4-0.5 0-0.1 0-0.1 0-0.2 0-0.1 0.1-0.2 0.1-0.3 0-0.1-0.1-0.1-0.1-0.2 0-0.1 0-0.2 0-0.3 0-0.2 0-0.4-0.1-0.5 -0.4-0.7-1.2-0.9-2-0.8 -0.2 0-0.3 0.1-0.4 0.2 -0.2 0.1-0.1 0.2-0.3 0.2 -0.1 0-0.2 0.1-0.2 0.2C31.1-2.8 31.1-2.9 31.1-2.8 31.1-2.7 31.1-2.8 31.1-2.8"/><path class="st2" d="M23.5-2.8c0 0.1 0 0.1 0 0.2 -0.1 0.1-0.1 0.1-0.2 0.1 -0.1 0.1-0.1 0.3-0.1 0.4 -0.2 0.1 0 0.2 0 0.3 0 0 0 0.1 0 0.2 0 0.1 0 0.3 0.1 0.4 0.1 0.2 0.3 0.4 0.4 0.5C23.8-0.5 24-0.1 24.3 0c0.2 0 0.4-0.1 0.5-0.1 0.2 0 0.4 0 0.6-0.1 0.2-0.1 0.1-0.3 0.3-0.5 0.1-0.1 0.3 0 0.4-0.1 0.2-0.1 0.3-0.3 0.4-0.5 0-0.1 0-0.1 0-0.2 0-0.1 0.1-0.2 0.1-0.3 0-0.1-0.1-0.1-0.1-0.2 0-0.1 0-0.2 0-0.3 0-0.2 0-0.4-0.1-0.5 -0.4-0.7-1.2-0.9-2-0.8 -0.2 0-0.3 0.1-0.4 0.2 -0.2 0.1-0.1 0.2-0.3 0.2 -0.1 0-0.2 0.1-0.2 0.2C23.5-2.8 23.5-2.9 23.5-2.8 23.5-2.7 23.5-2.8 23.5-2.8"/><path class="st2" d="M15.8-2.8c0 0.1 0 0.1 0 0.2 -0.1 0.1-0.1 0.1-0.2 0.1 -0.1 0.1-0.1 0.3-0.1 0.4 -0.2 0.1 0 0.2 0 0.3 0 0 0 0.1 0 0.2 0 0.1 0 0.3 0.1 0.4C15.7-1 15.8-0.8 16-0.7c0.2 0.1 0.4 0.6 0.6 0.6 0.2 0 0.4-0.1 0.5-0.1 0.2 0 0.4 0 0.6-0.1 0.2-0.1 0.1-0.3 0.3-0.5 0.1-0.1 0.3 0 0.4-0.1 0.2-0.1 0.3-0.3 0.4-0.5 0-0.1 0-0.1 0-0.2 0-0.1 0.1-0.2 0.1-0.3 0-0.1-0.1-0.1-0.1-0.2 0-0.1 0-0.2 0-0.3 0-0.2 0-0.4-0.1-0.5 -0.4-0.7-1.2-0.9-2-0.8 -0.2 0-0.3 0.1-0.4 0.2 -0.2 0.1-0.1 0.2-0.3 0.2 -0.1 0-0.2 0.1-0.2 0.2C15.8-2.8 15.8-2.9 15.8-2.8 15.8-2.7 15.8-2.8 15.8-2.8"/><path class="st2" d="M8.2-2.8c0 0.1 0 0.1 0 0.2C8.1-2.5 8-2.5 8-2.5 7.9-2.4 7.9-2.2 7.9-2.1c-0.2 0.1 0 0.2 0 0.3 0 0 0 0.1 0 0.2 0 0.1 0 0.3 0.1 0.4C8-1 8.2-0.8 8.3-0.7 8.5-0.5 8.7-0.1 8.9 0c0.2 0 0.4-0.1 0.5-0.1 0.2 0 0.4 0 0.6-0.1 0.2-0.1 0.1-0.3 0.3-0.5 0.1-0.1 0.3 0 0.4-0.1 0.2-0.1 0.3-0.3 0.4-0.5 0-0.1 0-0.1 0-0.2 0-0.1 0.1-0.2 0.1-0.3 0-0.1-0.1-0.1-0.1-0.2 0-0.1 0-0.2 0-0.3 0-0.2 0-0.4-0.1-0.5 -0.4-0.7-1.2-0.9-2-0.8C9-3.5 8.8-3.4 8.7-3.4 8.5-3.3 8.6-3.2 8.4-3.1 8.3-3.1 8.2-3 8.2-2.9 8.2-2.8 8.2-2.9 8.2-2.8 8.1-2.7 8.1-2.8 8.2-2.8"/><path class="st2" d="M0.5-2.8c0 0.1 0 0.1 0 0.2C0.4-2.5 0.4-2.5 0.3-2.5 0.3-2.4 0.2-2.2 0.2-2.1c-0.2 0.1 0 0.2 0 0.3 0 0 0 0.1 0 0.2 0 0.1 0 0.3 0.1 0.4C0.3-1 0.5-0.8 0.7-0.7 0.9-0.5 1-0.1 1.3 0c0.2 0 0.4-0.1 0.5-0.1 0.2 0 0.4 0 0.6-0.1 0.2-0.1 0.1-0.3 0.3-0.5 0.1-0.1 0.3 0 0.4-0.1C3.3-0.8 3.4-1 3.5-1.2c0-0.1 0-0.1 0-0.2 0-0.1 0.1-0.2 0.1-0.3 0-0.1-0.1-0.1-0.1-0.2 0-0.1 0-0.2 0-0.3 0-0.2 0-0.4-0.1-0.5 -0.4-0.7-1.2-0.9-2-0.8C1.3-3.5 1.2-3.4 1-3.4 0.9-3.3 0.9-3.2 0.7-3.1 0.6-3.1 0.5-3 0.5-2.9 0.5-2.8 0.5-2.9 0.5-2.8 0.5-2.7 0.5-2.8 0.5-2.8"/></pattern><path class="st3" d="M156.5 51.5c-5.5 0-10.1 4.5-10.1 10h0v56.2c0 17.5-8.5 26.6-25.5 27.3 -8.2 0-14.5-2.6-18.9-7.8 -4.4-5.2-6.6-11.5-6.6-19.1V79.3h-0.3c0-5.6-4.5-10.1-10.1-10.1 -5.6 0-10.1 4.5-10.1 10.1h-0.3v38.8c0 7.6-2.2 13.9-6.6 19.1 -4.4 5.2-10.7 7.8-18.9 7.8 -17-0.7-25.5-9.8-25.5-27.3V61.4h-0.1c-0.1-5.5-4.6-10-10.1-10C7.8 51.5 3.2 56 3.2 61.6c0 0.3 0 0.6 0 0.9V123c0.7 11.2 4.2 20.1 10.3 26.8 6.1 6.7 14.5 11.6 25.1 14.5 0 0 6.3 0.8 10.7 0.8 5.5 0 10.1-0.8 10.1-0.8 5.8-1.5 10.9-3.6 15.3-6.3l10.3-6.5 10.2 6.5c4.4 2.7 9.5 4.8 15.3 6.3 0 0 4.6 0.8 10.1 0.8 4.4 0 10.7-0.8 10.7-0.8 10.6-3 19-7.8 25.1-14.5 6.1-6.7 9.6-15.6 10.3-26.8V61.5h0C166.6 55.9 162.1 51.5 156.5 51.5zM257.5 54.7C257.5 54.7 257.4 54.7 257.5 54.7L257.5 54.7l-43.4 0c0.7-6.1 2.5-11.3 5.7-15.7 4-5.6 8.7-9.7 14.2-12.2 5.5-2.5 10.7-3.8 15.6-3.8h7.9c0 0 0 0 0 0 5.4 0 9.7-4.3 9.7-9.7 0-5.4-4.3-9.7-9.7-9.7 -0.2 0-0.3 0-0.5 0h-10.3c-11.3 0.7-21 3.6-29.1 8.7 -8.1 5.1-14.3 11.9-18.6 20.2 -4.3 8.3-6.6 17.3-7 26.8v94.9h0c0 6 4.9 10.8 10.8 10.8 6 0 10.8-4.8 10.8-10.8h0V77.6c0 0 0-1.4 0-3.5h43.7v0c0 0 0 0 0 0 5.3 0 9.7-4.3 9.7-9.7C267.1 59.1 262.8 54.7 257.5 54.7z"/><path class="st4" d="M31.8 183.2c-1 0-1.9 0.8-1.9 1.9h0v10.5c0 3.3-1.6 5-4.8 5.1 -1.5 0-2.7-0.5-3.5-1.4 -0.8-1-1.2-2.2-1.2-3.6v-7.2h-0.1c0-1-0.8-1.9-1.9-1.9 -1 0-1.9 0.8-1.9 1.9h-0.1v7.2c0 1.4-0.4 2.6-1.2 3.6 -0.8 1-2 1.4-3.5 1.4 -3.2-0.1-4.8-1.8-4.8-5.1V185h0c0-1-0.9-1.9-1.9-1.9 -1 0-1.9 0.8-1.9 1.9 0 0.1 0 0.1 0 0.2v11.3c0.1 2.1 0.8 3.8 1.9 5 1.1 1.3 2.7 2.2 4.7 2.7 0 0 1.2 0.1 2 0.1 1 0 1.9-0.1 1.9-0.1 1.1-0.3 2-0.7 2.9-1.2l1.9-1.2 1.9 1.2c0.8 0.5 1.8 0.9 2.9 1.2 0 0 0.9 0.1 1.9 0.1 0.8 0 2-0.1 2-0.1 2-0.6 3.5-1.5 4.7-2.7 1.1-1.3 1.8-2.9 1.9-5V185h0C33.7 184 32.9 183.2 31.8 183.2zM57.7 194.5c0-1-0.8-1.9-1.9-1.9 -1 0-1.8 0.8-1.9 1.8 -0.4 2.1-1.2 3.6-2.2 4.7 -1 1.1-2.6 1.6-4.7 1.7 -1.4 0-2.6-0.3-3.6-1 -1-0.6-1.8-1.5-2.3-2.5 -0.5-1-0.8-2.1-0.9-3.3 0-1 0.1-2 0.4-2.9 0.3-0.9 0.7-1.7 1.3-2.4 0.6-0.7 1.3-1.2 2.1-1.6 0.8-0.4 1.7-0.6 2.7-0.6 1.3 0 2.3 0.2 3 0.5 0.7 0.3 1.3 0.8 1.8 1.4l-8.6 4.8c-0.6 0.3-1 0.9-1 1.6 0 1 0.8 1.7 1.7 1.7 0.4 0 0.7-0.1 1-0.3l12.2-6.8c-0.8-1.5-1.6-2.7-2.6-3.7 -1-1-2.1-1.7-3.3-2.2 -1.2-0.5-2.6-0.7-4.2-0.7 -1.6 0-3.3 0.4-4.9 1.2 -1.6 0.8-3 2.1-4.1 3.8 -1.1 1.7-1.6 3.8-1.6 6.2 0 1.8 0.5 3.5 1.5 5.1 1 1.6 2.3 2.9 3.9 3.8 1.6 0.9 3.3 1.4 5.1 1.4 2.3 0 4.2-0.6 5.9-1.6 1.6-1 2.9-2.3 3.7-3.8 0.8-1.5 1.3-2.9 1.3-4.2l0 0C57.7 194.7 57.7 194.6 57.7 194.5zM80.3 187.7c-0.9-1.6-2.2-2.8-3.8-3.6 -1.6-0.8-3.4-1.3-5.4-1.3 -1.4 0-2.7 0.3-3.9 0.8 -0.2 0-0.3 0.1-0.5 0.2 -0.4 0.3-0.7 0.8-0.8 1.3 0 0.1 0 0.1 0 0.2 0 0.1 0 0.1 0 0.2 0.1 0.9 0.9 1.6 1.8 1.6 0.1 0 0.3 0 0.4 0 0.2 0 0.3-0.1 0.5-0.2 0.8-0.3 1.7-0.4 2.7-0.4 0.8 0 1.5 0.1 2.3 0.4 0.7 0.3 1.5 0.7 2.1 1.3 0.7 0.6 1.2 1.3 1.6 2.2 0.4 0.9 0.6 1.9 0.6 3.1 0 0.8-0.1 1.7-0.4 2.5 -0.3 0.8-0.7 1.6-1.2 2.3 -0.6 0.7-1.3 1.3-2.1 1.7 -0.9 0.4-1.9 0.7-3 0.7 -2 0-3.6-0.7-4.9-2.2 -1.2-1.5-1.9-3.2-1.9-5.4v-17.4c0 0 0 0 0-0.1 0-1-0.8-1.9-1.9-1.9 -1 0-1.9 0.8-1.9 1.9h0v17.9c0 1.9 0.4 3.7 1.3 5.3 0.9 1.6 2.1 3 3.8 3.9 1.6 1 3.4 1.5 5.4 1.5 2.2 0 4-0.5 5.6-1.6 1.6-1 2.8-2.4 3.7-4.2 0.8-1.7 1.2-3.6 1.2-5.5C81.7 191.1 81.3 189.3 80.3 187.7z"/><path class="st5" d="M92.8 178.1c1-0.5 2-0.7 2.9-0.7h1.5c0 0 0 0 0 0 1 0 1.8-0.8 1.8-1.8 0-1-0.8-1.8-1.8-1.8 0 0-0.1 0-0.1 0h-1.9c-2.1 0.1-3.9 0.7-5.4 1.6 -1.5 1-2.7 2.2-3.5 3.8 -0.8 1.6-1.2 3.2-1.3 5v17.7h0c0 1.1 0.9 2 2 2 1.1 0 2-0.9 2-2h0v-14.3c0 0 0-0.3 0-0.6h8.2v0c0 0 0 0 0 0 1 0 1.8-0.8 1.8-1.8 0-1-0.8-1.8-1.8-1.8 0 0 0 0 0 0v0h-8.1c0.1-1.1 0.5-2.1 1.1-2.9C90.9 179.3 91.8 178.5 92.8 178.1zM121.8 192.3c0-1.7-0.4-3.2-1.2-4.7 -0.8-1.4-2-2.6-3.6-3.5 -1.6-0.9-3.5-1.3-5.6-1.3 -1.8 0-3.3 0.3-4.7 0.8 -1.3 0.5-2.5 1.3-3.4 2.3 -0.9 1-1.6 2.1-2.1 3.4 -0.5 1.3-0.7 2.6-0.7 4.1 0 1.6 0.3 3.1 0.9 4.5 0.6 1.4 1.4 2.5 2.3 3.5 1 1 2.1 1.7 3.3 2.2 1.2 0.5 2.4 0.7 3.7 0.7 1.3 0 2.3-0.2 3-0.5 0.4-0.2 1-0.5 1.6-0.8 0.2-0.1 0.3-0.1 0.4-0.3 0.3-0.3 0.6-0.7 0.6-1.1 0-0.1 0-0.1 0-0.2 0-0.1 0-0.1 0-0.2 -0.1-0.8-0.8-1.5-1.7-1.5 -0.2 0-0.4 0-0.6 0.1 -0.1 0.1-0.3 0.1-0.4 0.2 -0.8 0.4-1.7 0.6-2.6 0.6 -1.1 0-2.2-0.3-3.3-0.9 -1-0.6-1.9-1.4-2.5-2.5 -0.6-1.1-1-2.4-1-3.9 0-1.7 0.4-3 1.2-4.1 0.7-1 1.6-1.8 2.6-2.2 1-0.4 2-0.6 3-0.6 2 0 3.7 0.5 4.9 1.5 1.2 1 1.8 2.4 1.9 4v9.9c0 0 0 0 0 0 0 1.1 0.9 1.9 1.9 1.9 1.1 0 1.9-0.9 1.9-1.9 0 0 0-0.1 0-0.1V192.3zM139.3 200.3h-3.1c-1.5 0-2.7-0.3-3.7-1 -1-0.7-1.8-1.5-2.3-2.5 -0.5-1-0.8-2-0.8-3 0-1.5 0.4-2.8 1.1-3.9 0.7-1 1.6-1.8 2.6-2.3 1-0.5 2-0.7 2.9-0.7h3.3c1 0 1.8-0.8 1.8-1.8 0-1-0.8-1.8-1.8-1.8v0h-3.8c-2.1 0.1-3.9 0.7-5.4 1.6 -1.5 1-2.7 2.2-3.5 3.8 -0.8 1.6-1.2 3.2-1.3 5 0 1.5 0.4 3 1.2 4.6 0.8 1.5 1.9 2.8 3.5 3.9 1.6 1.1 3.4 1.6 5.6 1.7h3.8v0c1 0 1.8-0.8 1.8-1.8C141.1 201.1 140.3 200.3 139.3 200.3zM153.9 186.9L153.9 186.9C153.9 186.9 153.9 186.9 153.9 186.9c1 0 1.8-0.8 1.8-1.8 0-1-0.8-1.8-1.8-1.8 0 0 0 0-0.1 0h-5.5v-7.7h0v0c0-1-0.8-1.9-1.9-1.9 -1 0-1.9 0.8-1.9 1.9 0 0.1 0 0.1 0 0.2v21.7c0 1.9 0.5 3.4 1.6 4.6 1 1.2 2.6 1.8 4.8 1.8h2.9c0 0 0 0 0 0 1 0 1.8-0.8 1.8-1.8 0-1-0.8-1.8-1.8-1.8v0H151c-0.9 0-1.6-0.2-2-0.6 -0.5-0.4-0.7-0.9-0.7-1.5v-11.3H153.9zM175.5 185.6c-1-0.9-2.2-1.5-3.5-2 -1.3-0.5-2.6-0.7-3.9-0.7 -1.3 0-2.6 0.3-3.8 0.8 -1.3 0.5-2.4 1.2-3.4 2.2 -1 0.9-1.8 2.1-2.5 3.4 -0.6 1.3-0.9 2.7-0.9 4.2 0 0 0 0 0 0.1 0 0 0 0.1-0.1 0.1 0 1.9 0.5 3.7 1.5 5.4 0.9 1.7 2.3 3 4 4 1.8 1 3.8 1.5 6 1.5 2.1-0.1 3.9-0.7 5.5-1.8 1.5-1.1 2.7-2.5 3.4-4.2 0.8-1.7 1.2-3.3 1.2-4.9 0-1.7-0.3-3.2-0.9-4.5C177.3 187.6 176.5 186.5 175.5 185.6zM173.1 198.9c-1.2 1.2-2.8 1.8-4.8 1.8 -1.3 0-2.4-0.2-3.3-0.6 -0.9-0.4-1.6-1-2.1-1.8 -0.5-0.7-0.9-1.5-1.2-2.4 -0.2-0.9-0.4-1.7-0.4-2.6 0-1.1 0.3-2.1 0.8-3.2 0.5-1 1.2-1.9 2.3-2.5 1-0.7 2.3-1 3.7-1 1.9 0 3.5 0.6 4.8 1.8 1.2 1.2 1.9 2.8 2 4.8C174.9 195.7 174.3 197.7 173.1 198.9zM192.2 182.8L192.2 182.8l-1.1 0c-0.9 0-1.6 0.1-2.3 0.4 -0.7 0.3-1.3 0.6-1.8 1 -0.5 0.4-0.9 0.9-1.2 1.5v-0.4c0-0.1 0-0.2 0-0.2 0-0.1 0-0.2 0-0.2 -0.1-0.8-0.8-1.5-1.6-1.6 -0.1 0-0.1 0-0.2 0 -0.1 0-0.1 0-0.2 0 -0.8 0.1-1.5 0.7-1.6 1.5 0 0.1 0 0.2 0 0.3 0 0.1 0 0.2 0 0.3V202c0 0 0 0 0 0 0 1 0.8 1.9 1.9 1.9 1 0 1.9-0.8 1.9-1.9 0 0 0 0 0 0v-8.9c0.1-1.6 0.5-3.1 1.3-4.5 0.8-1.4 2.2-2.1 4.1-2.1h0.9v0c1 0 1.8-0.8 1.8-1.8C194.1 183.6 193.2 182.8 192.2 182.8zM213.7 185.1c0-1.1-0.9-1.9-1.9-1.9 -1.1 0-1.9 0.9-1.9 1.9h0v10.5c0 1.4-0.4 2.6-1.2 3.6 -0.8 1-2 1.4-3.5 1.4 -3.2-0.1-4.8-1.8-4.8-5.1v-10.4h0c0 0 0 0 0 0 0-1-0.8-1.9-1.9-1.9 -1 0-1.9 0.8-1.9 1.9 0 0 0 0 0 0v11.4c0.1 2.1 0.8 3.8 1.9 5 1.1 1.3 2.7 2.2 4.7 2.7 0 0 1.2 0.1 2 0.1 1 0 1.9-0.1 1.9-0.1 1.1-0.3 2-0.7 2.9-1.2v3.3c-0.2 2.2-1.5 3.3-3.9 3.3H205v0c0 0 0 0 0 0 -1 0-1.8 0.8-1.8 1.8 0 1 0.8 1.8 1.8 1.8 0 0 0 0 0 0v0h1.9c1.6-0.1 3.2-0.7 4.6-1.8 1.4-1.2 2.1-3.1 2.1-5.7v-9.4c0-0.3 0-0.5 0-0.8L213.7 185.1 213.7 185.1z"/></svg>